<svg xmlns="http://www.w3.org/2000/svg" width="86" height="101" viewBox="0 0 86 101" fill="none">
<g clip-path="url(#clip0_340_655)">
<path d="M104.849 62.6538C102.592 64.2079 100.165 64.5911 97.44 64.4633C97.4187 75.6827 97.5251 86.6678 97.3761 97.8446C97.2697 103.806 92.1816 108.808 86.2206 108.915C80.2597 109.021 74.2775 108.957 68.2953 108.936C66.3792 108.936 65.1019 107.552 65.1019 105.509C65.0806 100.463 65.1019 95.4176 65.0806 90.3721C65.0806 87.051 65.0806 83.7087 65.0806 80.3876C65.0593 76.96 62.9091 74.7673 59.439 74.7247C56.1818 74.6821 52.9246 74.6821 49.6673 74.7247C46.2824 74.7673 44.1109 76.9813 44.1109 80.3663C44.0896 88.6051 44.0896 96.8227 44.0896 105.062C44.0896 107.808 42.94 108.957 40.1724 108.957C34.765 108.957 29.3576 108.957 23.9501 108.957C16.8183 108.936 11.7515 103.955 11.7089 96.8014C11.6664 86.0292 11.6876 75.2356 11.6876 64.4633C1.80952 65.4001 -3.93853 54.2872 3.12944 47.1128C17.7337 32.5085 32.338 17.9042 46.9636 3.32116C47.8791 2.36315 48.9435 1.57545 50.1144 0.936781C53.5206 -0.766344 58.8216 -0.234117 62.0576 3.08698C70.2539 11.4962 78.6205 19.735 86.9232 28.0378C93.2886 34.4245 99.6115 40.8538 106.083 47.1553C110.341 51.3067 109.937 59.2688 104.849 62.6538Z" fill="#E7EEEC"/>
</g>
<defs>
<clipPath id="clip0_340_655">
<rect width="109" height="109" fill="white"/>
</clipPath>
</defs>
</svg>