<svg xmlns="http://www.w3.org/2000/svg" width="120" height="89" viewBox="0 0 120 89" fill="none">
<path d="M64.0427 102.468H0V89.6598H36.8246C32.1494 71.6638 17.996 57.5744 0 52.8993C4.09873 51.8746 8.3896 51.2342 12.8085 51.2342C41.1154 51.2342 64.0427 74.1615 64.0427 102.468ZM128.085 52.8993C123.987 51.8746 119.696 51.2342 115.277 51.2342C96.5124 51.2342 80.1815 61.3529 71.2155 76.403C73.0727 80.6298 74.6098 85.0487 75.5064 89.6598C76.3389 93.8226 76.7872 98.1134 76.7872 102.468H89.5958H128.021V89.6598H91.1968C95.936 71.6638 110.089 57.5744 128.085 52.8993ZM87.3543 44.958C92.3496 31.5731 101.636 20.3656 113.548 12.9366C86.0734 13.8332 64.0427 36.3122 64.0427 64.0427C64.0427 64.1068 64.0427 64.1708 64.0427 64.1708C70.1268 56.0374 78.1321 49.441 87.3543 44.958ZM60.3282 31.0607C54.9487 17.0354 44.0614 5.6998 30.1001 0C39.3222 11.9119 44.8299 26.7699 44.8299 42.9727C44.8299 44.3176 44.6378 45.5984 44.5737 46.8793C47.3276 48.4163 49.8893 50.2095 52.3869 52.1308C53.7318 44.5737 56.5497 37.465 60.3282 31.0607Z" fill="#094C3B" fill-opacity="0.1"/>
</svg>