<svg xmlns="http://www.w3.org/2000/svg" width="84" height="106" viewBox="0 0 84 106" fill="none">
<path d="M52.0467 0.779297C17.9119 29.9187 0.8125 55.0875 0.8125 76.3497C0.8125 108.243 25.1487 128.865 52.0467 128.865C78.9446 128.865 103.281 108.243 103.281 76.3497C103.281 55.0875 86.1814 29.9187 52.0467 0.779297ZM25.3409 77.6306C27.7104 77.6306 29.6317 79.2957 30.08 81.6012C32.7058 95.8187 44.6818 100.686 53.3916 99.9815C56.1454 99.8534 58.4509 102.031 58.4509 104.785C58.4509 107.346 56.4016 109.46 53.8399 109.588C40.1988 110.42 24.2521 102.607 20.6017 83.2023C20.0894 80.3203 22.3949 77.6306 25.3409 77.6306Z" fill="#094C3B" fill-opacity="0.1"/>
</svg>