<svg xmlns="http://www.w3.org/2000/svg" width="99" height="114" viewBox="0 0 99 114" fill="none">
<g clip-path="url(#clip0_340_549)">
<path d="M23.0624 67.6517V88.7514C23.0624 90.701 21.6424 90.3649 19.0574 93.0626C17.6484 94.5392 15.1677 93.583 15.1762 91.5411C15.1902 87.1198 15.2296 79.5598 15.1987 66.0795C15.1931 64.4286 16.9087 63.3345 18.4049 64.0345L21.7692 65.6152C22.5584 65.9861 23.0624 66.7795 23.0624 67.6517ZM131.051 39.8333L72.6496 12.3945C69.4006 10.8623 65.6285 10.8513 62.3503 12.3945L3.9515 39.8333C-1.32897 42.3122 -1.30535 49.8053 3.9515 52.2729L21.7912 60.6542C22.4156 60.9495 23.1496 60.612 23.3465 59.9483C23.9146 58.047 25.3068 56.458 27.194 55.662L62.7552 40.7023C63.9027 40.2214 65.2218 40.7586 65.7028 41.9061C66.1837 43.0508 65.6465 44.3698 64.5018 44.8508L28.9406 59.8105C28.1052 60.162 27.5624 60.9776 27.5624 61.8833V93.1667C23.0042 94.2166 19.4062 98.3203 19.4062 103.441V117.962C19.4062 118.538 19.6284 119.095 20.0277 119.511C25.4033 125.174 34.5014 125.176 39.8784 119.511C40.2777 119.095 40.4999 118.538 40.4999 117.962V103.629C40.4999 98.4964 36.8549 94.1173 32.0624 93.1133V88.5626C38.9615 89.6089 44.9999 95.4083 44.9999 103.629V113.813C44.9999 114.876 45.7424 115.796 46.7803 116.018C69.5446 120.884 93.0881 117.506 113.481 106.799C117.388 104.749 119.812 100.741 119.812 96.3364V66.0683C119.812 64.4201 118.097 63.3289 116.606 64.032L74.5649 83.7842C70.0002 85.9301 64.8449 85.8542 60.4349 83.7842L33.3556 71.0607C32.5662 70.6898 32.0624 69.8964 32.0624 69.0242C32.0624 67.3752 33.7772 66.2862 35.2695 66.9877L62.3503 79.712C65.6254 81.2482 69.3691 81.2507 72.6496 79.712L131.048 52.2732C136.316 49.8002 136.317 42.3083 131.051 39.8333Z" fill="#E7EEEC"/>
</g>
<defs>
<clipPath id="clip0_340_549">
<rect width="135" height="135" rx="10" fill="white"/>
</clipPath>
</defs>
</svg>