<svg xmlns="http://www.w3.org/2000/svg" width="301" height="301" viewBox="0 0 301 301" fill="none">
<mask id="mask0_440_1481" style="mask-type:luminance" maskUnits="userSpaceOnUse" x="0" y="0" width="301" height="301">
<path d="M300.699 0.300781V300.699H0.300781V0.300781H300.699Z" fill="white" stroke="white" stroke-width="0.602"/>
</mask>
<g mask="url(#mask0_440_1481)">
<path d="M336.42 94.6638C335.567 95.0933 334.654 95.425 333.705 95.6677H333.704C331.422 96.2577 328.944 96.3513 326.521 96.2332L325.487 96.1707C324.288 96.0846 323.094 95.9625 321.882 95.8503L320.662 95.7429C319.415 95.6425 318.167 95.5693 316.921 95.573L316.387 95.5798C314.928 95.6065 313.477 95.7495 312.049 96.0847L311.438 96.241C309.507 96.7704 307.705 97.6595 305.932 98.5164C304.149 99.3779 302.393 100.208 300.515 100.657C299.825 100.822 299.127 100.934 298.415 101.011C296.439 101.23 294.441 101.185 292.411 101.279C290.401 101.372 288.394 101.603 286.503 102.387H286.502C286.348 102.452 286.195 102.52 286.044 102.592L285.602 102.813C283.95 103.667 282.499 104.868 281.068 106.021C279.628 107.183 278.205 108.3 276.573 109.044C274.297 110.079 271.67 110.269 269.232 109.67L269.231 109.669C267.858 109.334 266.551 108.753 265.404 107.934L265.243 107.819L265.073 107.923C263.265 109.019 261.458 110.103 259.649 111.194C258.581 110.398 257.566 109.538 256.6 108.623C249.578 101.977 245.302 92.4223 245.159 82.7527V82.7498L245.151 82.2234C245.149 81.755 245.159 81.287 245.181 80.821C247.651 79.5769 250.121 78.3275 252.591 77.0779L252.746 76.9998L252.756 76.8259C252.997 72.4956 253.704 67.9539 256.748 65.3552C256.964 65.1742 257.191 64.9987 257.436 64.8298C258.843 63.8694 260.494 63.4206 262.231 63.0369C263.953 62.6567 265.775 62.3396 267.432 61.6267C270.315 60.387 272.458 58.0969 274.516 55.7683L275.395 54.7703C276.411 53.6151 277.431 52.4888 278.549 51.4841L278.55 51.4832C279.017 51.057 279.508 50.6537 280.017 50.281L280.018 50.282C282.182 48.703 284.678 47.7267 287.263 46.8269C289.834 45.9315 292.505 45.1076 294.949 43.8337L294.95 43.8347C295.482 43.5598 296.002 43.2604 296.509 42.946L297.011 42.6277C299.282 41.1562 301.325 39.3624 303.323 37.532C305.327 35.6966 307.281 33.8283 309.396 32.1794H309.397C315.093 27.7264 322.058 24.9398 329.236 24.1072L336.42 94.6638Z" stroke="white" stroke-width="0.602"/>
<path d="M244.578 83.3594C244.886 92.8644 249.095 102.195 255.925 108.813C253.548 110.555 251.649 112.812 249.959 115.247C248.206 117.774 246.653 120.529 245.036 123.093C241.526 128.655 237.251 133.856 231.689 137.283C227.991 139.559 223.851 140.985 219.778 142.643C212.03 145.787 204.625 149.775 197.728 154.5C197.617 154.574 197.52 154.639 197.424 154.692L197.266 154.779L197.269 154.96C197.292 156.365 197.109 157.772 196.576 159.047H196.575C195.937 160.577 194.756 161.904 193.241 162.488H193.24C192.996 162.583 192.814 162.623 192.669 162.578H192.67C192.537 162.536 192.398 162.411 192.266 162.223V162.222L192.262 162.217L192.163 162.077C191.686 161.368 191.449 160.51 191.222 159.613C190.262 155.802 189.65 151.909 189.002 148.008C188.355 144.112 187.672 140.21 186.571 136.408L186.371 135.718L186.02 136.345C183.802 140.296 181.961 144.457 180.138 148.591L180.137 148.592C179.861 149.221 179.572 149.891 179.42 150.6C179.25 151.392 179.268 152.224 179.239 152.975V152.976C179.162 155.069 178.701 157.141 177.901 159.083C177.537 159.957 177.04 160.833 176.411 161.509C175.783 162.183 175.037 162.644 174.165 162.729C173.655 162.778 173.153 162.661 172.85 162.354V162.353C172.67 162.171 172.559 161.929 172.489 161.637C172.418 161.341 172.394 161.018 172.369 160.683V160.682C172.248 159.046 171.992 157.423 171.603 155.835V155.834C171.375 154.913 171.128 154.056 171.1 153.169V153.168C171.065 152.236 171.288 151.32 171.524 150.362C172.552 146.208 173.7 142.084 174.969 138.002L174.462 137.707C172.535 139.772 170.615 141.837 168.688 143.908H168.688C167.094 145.629 165.496 147.336 163.533 148.521C161.567 149.703 159.188 150.306 157.051 149.67H157.052C156.637 149.546 156.296 149.367 156.13 149.11L156.069 148.996C156.001 148.824 155.996 148.625 156.023 148.393V148.391C156.129 147.453 156.652 146.602 157.201 145.717L157.202 145.718C159.549 141.974 161.91 138.222 164.258 134.472L164.257 134.471C165.406 132.642 166.552 130.815 167.765 129.037L168.288 128.278C169.291 126.849 170.33 125.474 171.577 124.298V124.297C173.795 122.204 176.549 120.849 179.395 119.54C182.226 118.237 185.156 116.977 187.639 115.077L187.713 115.021L187.742 114.933C188.388 112.995 189.153 111.105 190.276 109.443L190.506 109.114C191.743 107.4 193.435 105.967 195.399 105.329L195.489 105.301L195.546 105.225C196.964 103.355 199.544 102.588 202.018 102.025L202.019 102.026C211.637 99.8656 221.802 98.5267 230.505 93.749L231.343 93.2754C234.665 91.3476 237.662 88.9303 240.627 86.543C241.944 85.4786 243.261 84.4186 244.578 83.3594ZM196.81 133.384L196.105 134.727L196.059 134.815L196.074 134.914C196.187 135.616 196.434 138.042 196.654 140.31C196.764 141.44 196.867 142.526 196.942 143.329C196.98 143.73 197.011 144.062 197.032 144.292C197.043 144.407 197.051 144.497 197.057 144.559C197.059 144.589 197.062 144.612 197.063 144.628C197.064 144.636 197.064 144.642 197.064 144.646C197.065 144.648 197.065 144.649 197.065 144.65V144.652L197.129 145.342L197.59 144.825C198.029 144.333 198.493 143.863 198.966 143.402C199.171 143.203 199.372 143.007 199.579 142.818L199.806 142.61L199.594 142.388L199.467 142.256L199.458 142.247L199.39 142.166C199.316 142.065 199.228 141.903 199.131 141.671C199.006 141.372 198.88 140.992 198.755 140.555C198.505 139.681 198.269 138.605 198.063 137.555C197.859 136.505 197.686 135.487 197.564 134.73C197.504 134.352 197.456 134.039 197.424 133.821C197.408 133.713 197.395 133.627 197.387 133.569C197.383 133.541 197.379 133.519 197.377 133.504C197.376 133.497 197.376 133.491 197.375 133.487C197.375 133.486 197.374 133.484 197.374 133.483V133.481L197.243 132.557L196.81 133.384ZM207.019 126.298H207.018C207.017 126.298 207.017 126.3 207.017 126.301C207.016 126.303 207.014 126.306 207.013 126.311C207.009 126.319 207.005 126.332 206.999 126.348C206.986 126.38 206.967 126.428 206.943 126.489C206.896 126.612 206.828 126.789 206.745 127.007C206.58 127.443 206.356 128.043 206.125 128.699C205.666 130.002 205.163 131.562 205.031 132.494C204.897 133.449 205.087 134.653 205.299 135.593C205.406 136.068 205.521 136.486 205.609 136.785C205.653 136.934 205.691 137.055 205.718 137.138C205.731 137.179 205.742 137.212 205.749 137.234C205.753 137.245 205.756 137.254 205.758 137.26C205.759 137.263 205.759 137.265 205.76 137.267L205.761 137.269L206.046 137.172L205.761 137.27L205.904 137.688L206.241 137.401L214.446 130.424L214.574 130.315L214.549 130.149C214.502 129.839 214.324 129.556 214.095 129.307C213.863 129.054 213.558 128.813 213.214 128.585C212.526 128.13 211.646 127.705 210.788 127.343C209.927 126.979 209.077 126.673 208.442 126.459C208.125 126.352 207.861 126.267 207.676 126.209C207.584 126.18 207.511 126.158 207.461 126.143C207.436 126.135 207.416 126.13 207.403 126.126C207.397 126.124 207.392 126.122 207.389 126.121C207.387 126.121 207.386 126.12 207.385 126.12L207.384 126.119H207.383L207.119 126.042L207.019 126.298Z" stroke="white" stroke-width="0.602"/>
<path d="M246.268 82.9336C246.263 82.9359 246.26 82.9363 246.259 82.9365L252.188 79.7529H252.188L246.268 82.9336Z" stroke="white" stroke-width="0.602"/>
<path d="M253.91 78.3574C254.769 83.3883 258.482 87.9094 263.233 89.7793C258.422 87.8953 254.782 83.4615 253.907 78.3545V78.3535L253.91 78.3574Z" stroke="white" stroke-width="0.602"/>
<path d="M262.427 89.3994C261.15 93.9458 261.731 98.9175 264.019 103.042V103.045L264.015 103.046C261.726 98.9213 261.146 93.9432 262.423 89.3984C262.424 89.395 262.426 89.3937 262.426 89.3936L262.427 89.3926C262.427 89.3942 262.427 89.3965 262.427 89.3994Z" stroke="white" stroke-width="0.602"/>
<mask id="path-7-inside-1_440_1481" fill="white">
<path d="M246.947 89.3427C246.844 89.3427 246.736 89.2885 246.682 89.1862C246.604 89.0417 246.652 88.8551 246.796 88.7768L253.635 84.9782C253.779 84.8999 253.96 84.9481 254.044 85.0926C254.123 85.2371 254.074 85.4237 253.93 85.5019L247.091 89.3006C247.049 89.3307 246.995 89.3427 246.947 89.3427Z"/>
</mask>
<path d="M246.682 89.1862L247.214 88.9045L247.211 88.8995L246.682 89.1862ZM246.796 88.7768L247.083 89.3062L247.089 89.3031L246.796 88.7768ZM253.635 84.9782L253.348 84.4488L253.343 84.4519L253.635 84.9782ZM254.044 85.0926L254.574 84.8059L254.569 84.7975L254.564 84.7892L254.044 85.0926ZM253.93 85.5019L253.643 84.9726L253.638 84.9757L253.93 85.5019ZM247.091 89.3006L246.799 88.7743L246.769 88.7909L246.741 88.8107L247.091 89.3006ZM246.947 89.3427V88.7407C247.04 88.7407 247.152 88.7871 247.214 88.9045L246.682 89.1862L246.15 89.4678C246.32 89.7899 246.648 89.9447 246.947 89.9447V89.3427ZM246.682 89.1862L247.211 88.8995C247.279 89.0244 247.253 89.2139 247.083 89.3062L246.796 88.7768L246.509 88.2475C246.05 88.4962 245.928 89.059 246.152 89.4729L246.682 89.1862ZM246.796 88.7768L247.089 89.3031L253.927 85.5045L253.635 84.9782L253.343 84.4519L246.504 88.2506L246.796 88.7768ZM253.635 84.9782L253.922 85.5075C253.785 85.5818 253.606 85.5364 253.524 85.3959L254.044 85.0926L254.564 84.7892C254.314 84.3598 253.774 84.2181 253.348 84.4489L253.635 84.9782ZM254.044 85.0926L253.515 85.3793C253.447 85.2544 253.473 85.0648 253.643 84.9726L253.93 85.5019L254.217 86.0313C254.676 85.7825 254.798 85.2198 254.574 84.8059L254.044 85.0926ZM253.93 85.5019L253.638 84.9757L246.799 88.7743L247.091 89.3006L247.383 89.8268L254.222 86.0282L253.93 85.5019ZM247.091 89.3006L246.741 88.8107C246.788 88.7774 246.832 88.7607 246.863 88.7521C246.894 88.7436 246.922 88.7407 246.947 88.7407V89.3427V89.9447C247.081 89.9447 247.269 89.9134 247.441 89.7904L247.091 89.3006Z" fill="white" mask="url(#path-7-inside-1_440_1481)"/>
<path d="M248.924 92.6362H248.925H248.924Z" stroke="white" stroke-width="0.602"/>
<path d="M250.443 96.3196H250.445L259.896 91.7151L259.895 91.7141L259.894 91.7151L259.893 91.7141L250.443 96.3196ZM250.443 96.3196L250.312 96.0491L250.442 96.3176L250.443 96.3196Z" stroke="white" stroke-width="0.602"/>
<path d="M260.544 96.5464C257.659 97.9832 254.785 99.5289 252.001 101.152C251.993 101.155 251.987 101.157 251.981 101.159C251.98 101.159 251.978 101.159 251.977 101.16C254.768 99.5329 257.649 97.9771 260.542 96.5425L260.543 96.5435L260.544 96.5425C260.544 96.5441 260.544 96.545 260.544 96.5464Z" stroke="white" stroke-width="0.602"/>
<path d="M261.32 101.453C261.321 101.452 261.322 101.452 261.322 101.452V101.451L261.32 101.453ZM261.32 101.453C260.368 102.049 259.43 102.678 258.512 103.334C259.191 102.849 259.88 102.378 260.578 101.925L261.32 101.452V101.453ZM258.41 103.407C257.447 104.099 256.504 104.821 255.592 105.572H255.59C256.502 104.822 257.446 104.1 258.41 103.407Z" stroke="white" stroke-width="0.602"/>
<path d="M262.333 105.197C262.332 105.199 262.332 105.202 262.329 105.204L257.985 109.05L257.984 109.052V109.051C257.984 109.049 257.986 109.046 257.989 109.042L257.988 109.041L262.333 105.197Z" stroke="white" stroke-width="0.602"/>
<mask id="path-14-inside-2_440_1481" fill="white">
<path d="M199.377 142.897C199.299 142.897 199.22 142.867 199.16 142.8C199.046 142.68 199.052 142.487 199.172 142.373C199.798 141.783 205.614 137.129 205.861 136.937C205.993 136.834 206.18 136.853 206.282 136.985C206.384 137.117 206.366 137.304 206.234 137.406C206.174 137.455 200.19 142.24 199.582 142.812C199.527 142.867 199.449 142.897 199.377 142.897Z"/>
</mask>
<path d="M199.16 142.8L199.606 142.395L199.597 142.386L199.16 142.8ZM199.172 142.373L198.759 141.935L198.758 141.936L199.172 142.373ZM205.861 136.937L205.492 136.46L205.49 136.462L205.861 136.937ZM206.234 137.406L205.866 136.93L205.858 136.936L206.234 137.406ZM199.582 142.812L199.169 142.374L199.163 142.38L199.156 142.387L199.582 142.812ZM199.377 142.897V142.295C199.458 142.295 199.545 142.329 199.606 142.395L199.16 142.8L198.715 143.205C198.896 143.404 199.14 143.499 199.377 143.499V142.897ZM199.16 142.8L199.597 142.386C199.714 142.509 199.705 142.697 199.587 142.809L199.172 142.373L198.758 141.936C198.399 142.277 198.378 142.851 198.724 143.215L199.16 142.8ZM199.172 142.373L199.585 142.811C200.186 142.245 205.973 137.612 206.231 137.411L205.861 136.937L205.49 136.462C205.254 136.647 199.411 141.321 198.759 141.935L199.172 142.373ZM205.861 136.937L206.229 137.413C206.115 137.501 205.92 137.501 205.806 137.353L206.282 136.985L206.758 136.617C206.44 136.204 205.871 136.168 205.492 136.46L205.861 136.937ZM206.282 136.985L205.806 137.353C205.718 137.24 205.718 137.044 205.866 136.93L206.234 137.406L206.602 137.883C207.014 137.564 207.051 136.995 206.758 136.617L206.282 136.985ZM206.234 137.406L205.858 136.936C205.828 136.96 204.316 138.17 202.735 139.444C201.171 140.706 199.495 142.067 199.169 142.374L199.582 142.812L199.994 143.251C200.276 142.985 201.896 141.668 203.491 140.382C205.07 139.108 206.58 137.9 206.61 137.876L206.234 137.406ZM199.582 142.812L199.156 142.387C199.191 142.352 199.228 142.33 199.26 142.317C199.293 142.304 199.332 142.295 199.377 142.295V142.897V143.499C199.601 143.499 199.835 143.41 200.007 143.238L199.582 142.812Z" fill="white" mask="url(#path-14-inside-2_440_1481)"/>
<path d="M197.046 126.261C198.957 125.791 201.449 125.812 203.517 125.962C205.575 126.111 207.179 126.386 207.303 126.409H207.304C207.302 126.41 207.301 126.411 207.3 126.411H207.299C207.122 126.38 205.577 126.126 203.609 125.979C201.552 125.826 198.992 125.787 197.047 126.266C195.758 126.582 194.401 126.821 192.955 127.074L192.954 127.075C190.118 127.579 187.129 128.102 184.718 129.273C182.921 130.148 180.42 132.308 178.384 134.227C176.432 136.065 174.871 137.717 174.697 137.902C174.693 137.905 174.691 137.908 174.688 137.909L174.688 137.908C174.843 137.742 176.458 136.024 178.48 134.125C180.531 132.2 182.963 130.127 184.716 129.273C187.115 128.109 190.057 127.585 192.951 127.071L192.95 127.07C194.387 126.818 195.752 126.576 197.045 126.261H197.046Z" stroke="white" stroke-width="0.602"/>
<path d="M189.037 131.71C188.74 132.152 188.453 132.607 188.184 133.052C187.647 133.936 187.178 134.784 186.84 135.414C186.671 135.729 186.534 135.991 186.439 136.176C186.392 136.268 186.355 136.341 186.329 136.393C186.301 136.447 186.29 136.467 186.29 136.468L186.284 136.479H186.283C186.349 136.343 187.166 134.7 188.252 132.931C188.502 132.524 188.766 132.111 189.037 131.71ZM189.037 131.71C189.13 131.573 189.224 131.438 189.318 131.305C189.225 131.439 189.129 131.573 189.037 131.71Z" stroke="white" stroke-width="0.602"/>
<path d="M202.274 127.876C199.452 128.564 197.035 128.781 195.108 128.781C192.644 128.781 190.988 128.425 190.333 128.254C191.505 128.55 195.907 129.42 202.274 127.876ZM202.966 127.701C202.744 127.759 202.525 127.816 202.308 127.869C202.525 127.816 202.744 127.759 202.966 127.701ZM203.803 127.469C203.556 127.541 203.312 127.608 203.071 127.672C203.312 127.608 203.556 127.541 203.802 127.469H203.803Z" stroke="white" stroke-width="0.602"/>
<path d="M199.375 128.483C199.373 128.488 199.371 128.488 199.375 128.486L199.376 128.484L199.377 128.486V128.487C199.188 129.084 198.641 130.293 198.12 131.393C197.615 132.46 197.145 133.398 197.087 133.514C197.086 133.516 197.086 133.517 197.085 133.518C197.133 133.423 197.588 132.507 198.086 131.458C198.602 130.369 199.177 129.109 199.374 128.486L199.375 128.483Z" stroke="white" stroke-width="0.602"/>
<mask id="path-20-inside-3_440_1481" fill="white">
<path d="M214.252 130.496C214.167 130.496 214.083 130.46 214.023 130.394C213.915 130.267 213.927 130.081 214.053 129.966C214.071 129.954 215.672 128.539 216.822 126.523C216.906 126.378 217.093 126.33 217.232 126.408C217.376 126.493 217.424 126.673 217.346 126.818C216.142 128.925 214.517 130.351 214.45 130.412C214.396 130.472 214.324 130.496 214.252 130.496Z"/>
</mask>
<path d="M214.023 130.394L213.566 130.785L213.572 130.792L213.577 130.799L214.023 130.394ZM214.053 129.966L213.719 129.465L213.682 129.49L213.649 129.52L214.053 129.966ZM216.822 126.523L216.302 126.219L216.299 126.225L216.822 126.523ZM217.232 126.408L217.535 125.888L217.528 125.884L217.232 126.408ZM217.346 126.818L217.869 127.116L217.875 127.104L217.346 126.818ZM214.45 130.412L214.045 129.966L214.023 129.987L214.003 130.009L214.45 130.412ZM214.252 130.496V129.894C214.337 129.894 214.414 129.929 214.468 129.989L214.023 130.394L213.577 130.799C213.752 130.99 213.998 131.098 214.252 131.098V130.496ZM214.023 130.394L214.48 130.002C214.588 130.127 214.568 130.312 214.457 130.413L214.053 129.966L213.649 129.52C213.285 129.849 213.241 130.407 213.566 130.785L214.023 130.394ZM214.053 129.966L214.387 130.467C214.402 130.457 214.413 130.449 214.416 130.446C214.422 130.442 214.426 130.439 214.428 130.437C214.433 130.433 214.437 130.43 214.44 130.428C214.444 130.424 214.449 130.42 214.452 130.417C214.458 130.412 214.466 130.405 214.474 130.398C214.49 130.384 214.511 130.365 214.537 130.341C214.589 130.294 214.662 130.225 214.751 130.138C214.93 129.964 215.177 129.714 215.461 129.399C216.025 128.771 216.742 127.878 217.345 126.821L216.822 126.523L216.299 126.225C215.752 127.184 215.094 128.007 214.566 128.594C214.303 128.886 214.074 129.117 213.912 129.275C213.831 129.354 213.767 129.414 213.723 129.454C213.701 129.474 213.685 129.488 213.675 129.497C213.67 129.502 213.667 129.504 213.667 129.505C213.645 129.523 213.68 129.491 213.719 129.465L214.053 129.966ZM216.822 126.523L217.342 126.826C217.262 126.964 217.086 127.017 216.935 126.932L217.232 126.408L217.528 125.884C217.101 125.643 216.551 125.793 216.302 126.219L216.822 126.523ZM217.232 126.408L216.928 126.928C216.788 126.846 216.742 126.668 216.817 126.531L217.346 126.818L217.875 127.104C218.106 126.678 217.964 126.139 217.535 125.888L217.232 126.408ZM217.346 126.818L216.823 126.519C215.669 128.538 214.105 129.912 214.045 129.966L214.45 130.412L214.855 130.857C214.855 130.858 214.899 130.818 214.952 130.769C215.009 130.717 215.086 130.645 215.181 130.553C215.369 130.37 215.626 130.11 215.919 129.785C216.503 129.136 217.239 128.218 217.869 127.116L217.346 126.818ZM214.45 130.412L214.003 130.009C214.085 129.918 214.189 129.894 214.252 129.894V130.496V131.098C214.459 131.098 214.708 131.026 214.898 130.814L214.45 130.412Z" fill="white" mask="url(#path-20-inside-3_440_1481)"/>
<mask id="path-22-inside-4_440_1481" fill="white">
<path d="M187.457 115.139C187.354 115.139 187.252 115.085 187.198 114.988C187.113 114.844 187.162 114.663 187.306 114.579C187.457 114.495 190.948 112.478 193.94 111.557C194.097 111.509 194.265 111.599 194.319 111.756C194.368 111.912 194.277 112.081 194.121 112.129C191.195 113.026 187.643 115.073 187.613 115.091C187.559 115.127 187.505 115.139 187.457 115.139Z"/>
</mask>
<path d="M187.198 114.988L187.722 114.693L187.718 114.685L187.198 114.988ZM187.306 114.579L187.012 114.054L187.003 114.059L187.306 114.579ZM193.94 111.557L193.763 110.982L193.763 110.982L193.94 111.557ZM194.319 111.756L194.895 111.579L194.892 111.569L194.888 111.559L194.319 111.756ZM194.121 112.129L194.297 112.704L194.298 112.704L194.121 112.129ZM187.613 115.091L187.303 114.574L187.291 114.582L187.279 114.59L187.613 115.091ZM187.457 115.139V114.537C187.559 114.537 187.664 114.589 187.722 114.693L187.198 114.988L186.673 115.283C186.84 115.58 187.15 115.741 187.457 115.741V115.139ZM187.198 114.988L187.718 114.685C187.802 114.83 187.75 115.017 187.609 115.099L187.306 114.579L187.003 114.059C186.573 114.31 186.425 114.858 186.678 115.292L187.198 114.988ZM187.306 114.579L187.6 115.104C187.765 115.012 191.198 113.031 194.117 112.132L193.94 111.557L193.763 110.982C190.698 111.925 187.148 113.977 187.012 114.054L187.306 114.579ZM193.94 111.557L194.117 112.132C193.947 112.185 193.797 112.086 193.751 111.952L194.319 111.756L194.888 111.559C194.734 111.113 194.246 110.833 193.763 110.982L193.94 111.557ZM194.319 111.756L193.744 111.933C193.693 111.768 193.786 111.602 193.944 111.553L194.121 112.129L194.298 112.704C194.769 112.559 195.042 112.056 194.895 111.579L194.319 111.756ZM194.121 112.129L193.944 111.553C190.944 112.473 187.34 114.552 187.303 114.574L187.613 115.091L187.923 115.607C187.923 115.607 188.804 115.098 190.049 114.478C191.297 113.857 192.882 113.138 194.297 112.704L194.121 112.129ZM187.613 115.091L187.279 114.59C187.335 114.553 187.399 114.537 187.457 114.537V115.139V115.741C187.61 115.741 187.783 115.701 187.947 115.592L187.613 115.091Z" fill="white" mask="url(#path-22-inside-4_440_1481)"/>
<path d="M196.262 104.861C196.368 104.843 196.481 104.827 196.599 104.809C196.481 104.827 196.368 104.843 196.262 104.861ZM196.838 104.771C196.851 104.769 196.864 104.767 196.877 104.765C197.006 104.746 197.139 104.731 197.273 104.714C197.124 104.733 196.978 104.75 196.838 104.771ZM197.494 104.686C197.581 104.676 197.669 104.669 197.756 104.66C197.668 104.669 197.581 104.676 197.494 104.686Z" stroke="white" stroke-width="0.602"/>
<path d="M171.897 156.917C172.215 156.994 172.508 157.202 172.729 157.487L172.73 157.49C172.973 157.795 173.127 158.168 173.242 158.577V158.578C173.502 159.479 173.562 160.426 173.622 161.412C173.623 161.423 173.622 161.434 173.622 161.444C173.205 161.426 172.79 161.473 172.392 161.568C172.39 161.567 172.389 161.567 172.388 161.566C172.376 161.553 172.359 161.528 172.344 161.476C172.335 161.447 172.329 161.414 172.323 161.377L172.309 161.258C172.173 159.804 172.033 158.373 171.897 156.917Z" stroke="white" stroke-width="0.602"/>
<path d="M159.87 141.662C160.005 141.581 160.181 141.578 160.371 141.664C160.563 141.75 160.732 141.915 160.821 142.104C161.014 142.513 160.957 143.016 160.831 143.568C160.417 145.325 159.5 146.955 158.227 148.228C158.171 148.284 158.125 148.326 158.083 148.355C158.042 148.383 158.02 148.388 158.013 148.388L157.998 148.389L157.983 148.392C157.963 148.396 157.93 148.391 157.813 148.357H157.812C157.496 148.267 157.18 148.174 156.864 148.083C156.624 148.013 156.383 147.943 156.142 147.874C156.264 147.502 156.472 147.14 156.704 146.754H156.705C157.626 145.22 158.54 143.691 159.455 142.156C159.563 141.978 159.654 141.84 159.758 141.745L159.866 141.665L159.87 141.662Z" stroke="white" stroke-width="0.602"/>
<path d="M190.897 156.332C190.932 156.33 190.971 156.333 191.013 156.342L191.155 156.388C191.672 156.621 192.005 157.176 192.294 157.808L192.295 157.809C192.825 158.957 193.226 160.158 193.498 161.39C193.499 161.403 193.501 161.416 193.502 161.425C193.502 161.43 193.503 161.435 193.503 161.439C193.501 161.44 193.499 161.442 193.497 161.443L193.44 161.47L193.435 161.473C193.015 161.669 192.595 161.863 192.181 162.054C192.142 162.009 192.104 161.958 192.068 161.898C192.012 161.803 191.964 161.695 191.921 161.581L191.804 161.223L190.727 157.437C190.645 157.14 190.585 156.912 190.62 156.695V156.69C190.65 156.485 190.79 156.349 190.897 156.332Z" stroke="white" stroke-width="0.602"/>
<path d="M198.24 147.774C198.262 147.776 198.296 147.787 198.351 147.844C198.411 147.908 198.468 147.998 198.53 148.108V148.109L198.534 148.115C199.194 149.216 200.067 150.186 201.091 150.96L201.052 151.042L201.524 151.295L201.525 151.296C201.725 151.433 201.793 151.56 201.785 151.678L201.784 151.686C201.781 151.755 201.753 151.828 201.684 151.915C201.612 152.004 201.514 152.09 201.396 152.186C200.579 152.843 199.703 153.436 198.795 153.958C198.47 154.142 198.185 154.29 197.896 154.319C197.794 154.329 197.7 154.328 197.617 154.315V154.314L197.608 154.313L197.489 154.292C197.212 154.228 196.942 154.067 196.679 153.836C196.378 153.573 196.106 153.235 195.864 152.896V152.895L195.711 152.677C195.363 152.17 195.096 151.671 195.096 151.144C195.096 150.69 195.299 150.245 195.586 149.82L195.587 149.819C196.081 149.08 196.771 148.476 197.564 148.065L197.571 148.061C197.732 147.972 197.895 147.898 198.078 147.822L198.089 147.817C198.151 147.788 198.199 147.776 198.24 147.774Z" stroke="white" stroke-width="0.602"/>
<path d="M197.067 154.748C197.229 154.814 197.397 154.878 197.572 154.937V154.939C197.397 154.88 197.229 154.815 197.067 154.748ZM197.357 144.619L197.36 144.621C197.254 144.69 196.539 145.178 195.776 145.904C195.027 146.618 194.185 147.607 193.875 148.69L193.82 148.908C193.793 149.037 193.77 149.168 193.751 149.301C193.769 149.168 193.792 149.036 193.819 148.908C194.056 147.803 194.886 146.756 195.712 145.957C196.531 145.164 197.304 144.655 197.358 144.62L197.357 144.619Z" stroke="white" stroke-width="0.602"/>
<path d="M244.863 82.7451C243.388 83.9311 241.913 85.117 240.438 86.309C237.47 88.6989 234.49 91.1009 231.191 93.0152C222.36 98.1503 211.921 99.4928 201.952 101.732C199.49 102.292 196.799 103.075 195.306 105.043C193.265 105.705 191.526 107.186 190.261 108.938C188.985 110.714 188.148 112.761 187.456 114.838C182.556 118.588 175.886 119.816 171.371 124.078C170.101 125.276 169.047 126.673 168.042 128.106C166.627 130.129 165.315 132.224 164.002 134.312C161.654 138.063 159.295 141.813 156.947 145.558C156.405 146.431 155.839 147.34 155.725 148.357C155.695 148.61 155.695 148.869 155.791 149.11C155.978 149.567 156.483 149.814 156.965 149.958C159.21 150.627 161.679 149.989 163.689 148.779C165.694 147.568 167.319 145.829 168.909 144.113C170.835 142.042 172.755 139.977 174.682 137.912C173.412 142 172.262 146.13 171.232 150.29C170.997 151.241 170.763 152.198 170.799 153.179C170.829 154.106 171.088 155.003 171.311 155.906C171.696 157.477 171.949 159.085 172.069 160.704C172.117 161.366 172.171 162.095 172.635 162.564C173.026 162.962 173.634 163.082 174.194 163.028C176.127 162.841 177.433 160.987 178.179 159.199C178.992 157.225 179.462 155.118 179.54 152.986C179.57 152.21 179.552 151.421 179.714 150.663C179.859 149.989 180.136 149.344 180.413 148.712C182.237 144.577 184.073 140.429 186.282 136.492C188.474 144.059 189.003 152.035 190.93 159.687C191.171 160.638 191.435 161.607 192.019 162.396C192.164 162.6 192.35 162.793 192.579 162.865C192.832 162.944 193.103 162.865 193.35 162.769C194.957 162.149 196.191 160.752 196.853 159.163C197.407 157.839 197.594 156.388 197.57 154.955C197.678 154.895 197.787 154.823 197.895 154.75C204.776 150.037 212.162 146.057 219.892 142.921C223.943 141.272 228.121 139.833 231.848 137.539C237.464 134.078 241.769 128.834 245.29 123.254C248.547 118.089 251.443 112.327 256.391 108.848M198.756 143.186C198.28 143.649 197.811 144.125 197.365 144.625C197.365 144.625 196.601 136.293 196.372 134.866L197.076 133.524C197.076 133.524 198.196 141.446 199.249 142.464L199.376 142.596C199.165 142.789 198.96 142.987 198.756 143.186ZM206.046 137.172C206.046 137.172 205.077 134.331 205.33 132.537C205.582 130.743 207.298 126.408 207.298 126.408C207.298 126.408 213.974 128.377 214.251 130.195L206.046 137.172Z" stroke="white" stroke-width="0.602" stroke-miterlimit="10" stroke-linecap="round" stroke-linejoin="round"/>
<path d="M275.158 55.0312C275.872 55.9621 276.286 57.0781 276.283 58.3389C276.28 59.7258 275.771 61.3115 274.561 63.0371L274.556 63.0459C273.149 65.2012 271.003 67.1122 268.585 68.1787C266.171 69.2436 263.505 69.4601 261.025 68.2666L261.004 68.2568L260.622 68.1016C258.869 67.3528 257.678 66.3312 256.949 65.1875C257.105 65.064 257.266 64.9418 257.437 64.8242L257.436 64.8232C258.843 63.863 260.494 63.414 262.231 63.0303C263.953 62.6501 265.775 62.333 267.432 61.6201C270.617 60.2507 272.897 57.5999 275.158 55.0312Z" stroke="white" stroke-width="0.602"/>
<path d="M296.675 42.8267C296.795 43.2425 296.881 43.6716 296.936 44.1099C297.131 47.252 296.476 49.6394 295.308 51.3589C294.139 53.0784 292.441 54.1545 290.507 54.6479C286.717 55.6151 282.034 54.3342 278.788 51.2573C279.183 50.9099 279.594 50.5789 280.017 50.269L280.016 50.2681C282.18 48.6892 284.676 47.7147 287.261 46.8149C289.833 45.9194 292.504 45.096 294.949 43.8218L294.948 43.8208C295.539 43.5153 296.115 43.1798 296.675 42.8267Z" stroke="white" stroke-width="0.602"/>
<path d="M292.934 86.3162C295.544 83.411 299.506 82.741 303.478 83.4587C307.452 84.1772 311.369 86.2782 313.8 88.8132C315.744 91.1954 316.382 93.5262 316.133 95.5808C314.762 95.6192 313.398 95.7636 312.055 96.0789L311.443 96.2351C309.512 96.7645 307.71 97.6536 305.938 98.5105C304.155 99.372 302.399 100.202 300.521 100.651C299.865 100.808 299.203 100.915 298.527 100.992C296.08 99.4111 293.885 97.0369 292.7 94.4128C291.507 91.7706 291.344 88.9008 292.934 86.3162Z" stroke="white" stroke-width="0.602"/>
<path d="M276.07 91.9812C277.936 91.2944 280.05 91.4384 282.29 92.8816C285.25 95.1636 286.119 99.039 285.473 102.873C283.877 103.721 282.466 104.886 281.074 106.009C279.634 107.17 278.209 108.287 276.578 109.031C274.347 110.046 271.779 110.246 269.382 109.689C268.559 107.798 268.373 105.467 268.712 103.099C269.059 100.678 269.951 98.2413 271.235 96.2361C272.522 94.2283 274.187 92.6745 276.07 91.9812Z" stroke="white" stroke-width="0.602"/>
<path d="M297.598 59.7859C299.973 56.6486 303.951 55.4318 307.265 56.1287C308.918 56.4763 310.394 57.2978 311.425 58.5808C312.454 59.8612 313.057 61.6227 312.932 63.8855C312.467 69.2713 309.104 75.0093 304.075 77.1814C301.359 78.0476 299.272 77.7598 297.744 76.7966C296.207 75.8273 295.184 74.1426 294.673 72.1248C293.646 68.0747 294.714 62.829 297.576 59.8113L297.588 59.7996L297.598 59.7859Z" stroke="white" stroke-width="0.602"/>
<path d="M277.382 70.1602C280.844 69.5677 284.378 70.126 286.948 72.2852C288.327 74.4108 288.522 76.3633 287.964 78.0752C287.398 79.8103 286.043 81.3402 284.258 82.5596C280.677 85.0051 275.487 86.1176 271.915 85.1865H271.916C269.789 84.6261 268.191 82.9234 267.487 80.9062C266.786 78.8954 266.984 76.6108 268.39 74.8809C270.545 72.5046 273.904 70.7553 277.382 70.1602Z" stroke="white" stroke-width="0.602"/>
<path d="M205.396 132.144C205.67 132.06 205.914 132.168 206.001 132.392L206.002 132.393C206.04 132.49 206.038 132.623 205.988 132.746C205.939 132.865 205.858 132.942 205.768 132.97C203.787 133.567 201.905 134.402 200.139 135.45L200.333 136.007C201.873 135.798 203.417 135.653 204.969 135.583L205.635 135.558C205.919 135.55 206.129 135.717 206.157 135.97C206.166 136.078 206.128 136.204 206.049 136.305C205.99 136.381 205.919 136.429 205.847 136.45L205.773 136.461C203.036 136.54 200.31 136.843 197.627 137.37C197.537 137.387 197.43 137.357 197.332 137.272C197.232 137.185 197.17 137.065 197.16 136.962L197.159 136.957C197.148 136.862 197.166 136.786 197.202 136.721L197.248 136.637L197.238 136.543C197.225 136.425 197.266 136.289 197.413 136.179L197.414 136.178C199.812 134.381 202.52 133.007 205.394 132.144H205.396Z" stroke="white" stroke-width="0.602"/>
</g>
</svg>