<svg xmlns="http://www.w3.org/2000/svg" width="307" height="302" viewBox="0 0 307 302" fill="none">
<path d="M217.616 158.392C218.38 154.13 218.049 149.609 216.279 145.624C214.624 141.891 211.921 138.689 208.526 136.419C207.424 135.679 206.244 135.065 205.016 134.577C204.974 134.944 204.872 135.293 204.721 135.636C204.667 135.763 204.607 135.883 204.546 136.01C209.838 138.159 214.088 142.963 215.708 148.441C218.356 157.405 214.215 167.253 207.526 173.322C200.609 179.601 191.08 182.436 181.899 182.887C180.9 182.936 179.888 182.954 178.877 182.942C178.414 178.92 177.366 174.959 175.59 171.311C173.706 167.434 171.021 163.991 167.812 161.119C161.323 155.304 153.057 151.848 144.792 149.41C144.533 149.332 144.28 149.266 144.021 149.187C143.082 138.863 145.057 128.533 146.839 118.395C147.7 113.495 148.693 108.546 148.855 103.562C148.994 99.3961 148.434 94.9954 146.08 91.4497C141.469 84.5026 131.885 84.0571 125.022 87.6751C118.346 91.1968 114.794 98.3305 113.169 105.549C110.568 103.718 107.757 102.201 104.675 101.341C100.563 100.191 95.9757 100.347 92.1289 102.28C88.1618 104.272 85.6394 108.221 84.8688 112.526C83.1591 122.073 89.745 130.435 97.1255 135.606C105.337 141.361 115.143 144.101 124.812 146.274C130.753 147.616 136.749 148.766 142.619 150.367C143.425 157.73 145.689 165.056 150.059 171.052C152.744 174.73 156.182 177.77 160.185 179.944C164.471 182.273 169.269 183.604 174.103 184.146C175.223 184.272 176.355 184.356 177.487 184.404C177.806 188.239 177.613 192.134 177.011 195.909C175.506 205.438 171.581 214.968 164.345 221.572C157.711 227.628 147.868 230.728 139.121 227.947C130.789 225.298 124.83 218.225 117.6 213.668C114.541 211.741 111.218 210.327 107.642 209.869C107.661 209.917 107.679 209.971 107.685 210.026C107.763 210.489 107.594 210.941 107.335 211.32C115.529 212.241 121.826 218.749 128.123 223.468C131.536 226.033 135.19 228.375 139.326 229.579C143.612 230.825 148.205 230.722 152.51 229.627C161.684 227.303 168.878 220.597 173.236 212.373C177.643 204.066 179.708 194.145 179.04 184.772C179.034 184.663 179.016 184.555 179.01 184.441C186.739 184.549 194.613 182.906 201.428 179.336C209.567 175.104 215.972 167.561 217.616 158.392ZM116.835 142.746C107.57 140.139 98.1068 136.148 91.6233 128.756C88.6554 125.372 86.3979 121.14 86.127 116.583C85.8742 112.267 87.3611 107.607 90.8527 104.868C94.254 102.207 98.8473 101.654 102.989 102.484C106.601 103.213 109.87 104.995 112.832 107.162C112.621 108.288 112.452 109.407 112.326 110.515C111.85 114.711 111.297 120.225 114.951 123.241C116.468 124.499 118.587 125.198 120.513 124.518C122.379 123.855 123.553 122.079 123.89 120.177C124.727 115.457 120.772 111.894 117.582 109.076C116.582 108.197 115.553 107.336 114.487 106.524C114.59 106.03 114.698 105.53 114.818 105.037C115.92 100.564 117.828 96.2055 120.953 92.768C123.686 89.758 127.328 87.7353 131.361 87.1153C135.064 86.5494 139.115 87.1032 142.155 89.4269C149.518 95.0556 147.381 106.102 146.074 113.922C144.28 124.656 141.866 135.456 142.312 146.4C142.342 147.183 142.396 147.965 142.462 148.748C133.998 146.466 125.293 145.118 116.835 142.746ZM114.186 108.191C114.782 108.667 115.372 109.148 115.944 109.642C118.978 112.255 123.595 115.915 122.283 120.496C121.735 122.411 120.014 123.639 118.021 123.175C115.902 122.681 114.505 120.845 113.933 118.835C113.301 116.613 113.488 114.193 113.699 111.924C113.813 110.672 113.982 109.425 114.186 108.191ZM154.671 174.074C148.368 168.006 145.237 159.355 144.196 150.819C146.803 151.571 149.379 152.42 151.908 153.426C159.89 156.604 167.566 161.324 172.357 168.644C175.181 172.954 176.734 177.855 177.342 182.899C169.046 182.52 160.739 179.926 154.671 174.074Z" fill="#00725E" fill-opacity="0.4"/>
<mask id="mask0_408_1542" style="mask-type:luminance" maskUnits="userSpaceOnUse" x="0" y="0" width="301" height="302">
<path d="M301 0.331055H0V301.331H301V0.331055Z" fill="white"/>
</mask>
<g mask="url(#mask0_408_1542)">
<path d="M29.9313 189.708C29.9313 189.708 34.4523 198.739 35.5359 211.429C36.6256 224.113 33.2122 238.477 33.2122 238.477C33.2122 238.477 17.181 223.18 19.4746 212.699C21.7682 202.212 29.9313 189.708 29.9313 189.708Z" stroke="#00725E" stroke-opacity="0.4" stroke-width="0.602" stroke-miterlimit="10"/>
<path d="M-42.3809 204.541C-42.3809 204.541 -1.0656 207.732 21.7683 202.212C44.6021 196.697 45.4449 196.595 48.0396 194.524C50.6342 192.453 68.0681 182.659 73.769 180.01C79.47 177.361 84.4907 176.874 90.8297 174.652C97.1628 172.437 105.904 166.748 108.793 166.411C111.677 166.074 112.857 172.208 109.215 176.548C105.573 180.889 104.194 181.509 94.7849 186.156C85.3756 190.804 85.8692 192.983 85.8692 192.983C85.8692 192.983 93.6772 197.028 96.7715 198.16C99.8657 199.292 106.265 196.547 106.265 196.547C106.265 196.547 107.939 194.055 109.805 193.477C111.671 192.893 111.882 194.109 111.882 194.109C111.882 194.109 120.683 190.99 121.791 189.684C121.791 189.684 121.76 183.128 123.747 181.328C125.734 179.528 127.768 178.734 128.9 178.8C130.032 178.872 130.682 183.772 130.682 183.772C130.682 183.772 134.481 178.86 136.172 177.801C137.864 176.741 140.531 176.777 140.531 176.777C140.531 176.777 142.385 173.725 145.034 173.641C147.683 173.557 150.578 175.495 150.626 176.223C150.675 176.952 148.014 180.534 145.317 184.182C142.62 187.83 137.599 196.041 136.552 197.624C135.504 199.202 132.819 201.537 131.916 202.182C131.916 202.182 130.887 210.905 130.592 213.192C130.297 215.48 128.021 217.635 126.089 218.947C124.162 220.26 119.172 222.662 118.311 224.064C117.444 225.461 117.42 226.984 114.091 229.043C110.768 231.108 98.5173 234.256 92.714 235.298C86.9107 236.339 77.8265 234.66 70.9216 235.418C64.0166 236.177 53.0783 231.619 38.6243 233.955C24.1763 236.291 -31.3703 250.366 -31.3703 250.366L-42.3809 204.541Z" stroke="#00725E" stroke-opacity="0.4" stroke-width="0.602" stroke-miterlimit="10"/>
<path d="M114.771 199.9C114.819 199.984 114.861 200.087 114.831 200.177C114.813 200.237 114.759 200.285 114.711 200.327C113.988 200.881 112.965 200.953 112.11 200.646C111.255 200.339 110.551 199.701 110.015 198.961C109.479 198.22 109.094 197.39 108.721 196.559C109.961 196.125 111.05 195.271 111.767 194.169C112.766 196.083 113.765 197.986 114.771 199.9Z" stroke="#00725E" stroke-opacity="0.4" stroke-width="0.602" stroke-miterlimit="10"/>
<path d="M129.61 179.528C130.453 181.792 130.94 184.188 131.055 186.596C130.706 186.626 130.344 186.512 130.013 186.385C129.441 186.174 128.857 185.934 128.442 185.494C127.936 184.964 127.726 184.218 127.545 183.508C127.334 182.725 127.136 181.942 126.931 181.16C126.919 181.112 126.907 181.069 126.919 181.021C126.937 180.925 127.039 180.883 127.13 180.847C128.003 180.504 128.839 180.058 129.61 179.528Z" stroke="#00725E" stroke-opacity="0.4" stroke-width="0.602" stroke-miterlimit="10"/>
<path d="M150.644 176.236C150.65 176.356 150.59 176.464 150.536 176.579C149.488 178.547 148.212 180.389 146.743 182.063C146.015 181.672 145.708 180.732 145.816 179.902C145.93 179.065 146.382 178.318 146.852 177.608C147.508 176.609 148.296 175.573 149.452 175.254C149.549 175.224 149.651 175.206 149.747 175.242C149.892 175.302 149.952 175.459 150.048 175.573C150.241 175.814 150.626 175.935 150.644 176.236Z" stroke="#00725E" stroke-opacity="0.4" stroke-width="0.602" stroke-miterlimit="10"/>
<path d="M40.244 220.392C40.232 220.392 40.22 220.392 40.2139 220.392C40.0514 220.374 39.931 220.224 39.9491 220.061C40.4668 215.179 40.5691 210.218 40.244 205.324C40.232 205.156 40.3584 205.017 40.527 205.005C40.6895 204.987 40.834 205.119 40.846 205.288C41.1771 210.218 41.0748 215.215 40.5511 220.133C40.527 220.278 40.3945 220.392 40.244 220.392Z" stroke="#00725E" stroke-opacity="0.4" stroke-width="0.602" stroke-miterlimit="10"/>
<path d="M81.0042 221.259C80.8959 221.259 80.7935 221.199 80.7394 221.103C78.7046 217.286 76.128 212.903 72.4438 209.388C68.6512 205.764 64.1603 203.645 59.7837 203.41C59.6152 203.404 59.4888 203.259 59.5008 203.091C59.5068 202.922 59.6513 202.784 59.8199 202.808C64.3349 203.049 68.9642 205.228 72.8592 208.954C76.5976 212.53 79.2103 216.961 81.2691 220.82C81.3474 220.964 81.2932 221.151 81.1427 221.229C81.1006 221.247 81.0524 221.259 81.0042 221.259Z" stroke="#00725E" stroke-opacity="0.4" stroke-width="0.602" stroke-miterlimit="10"/>
<path d="M82.2755 226.905C82.2634 226.905 82.2514 226.905 82.2393 226.905C82.0768 226.887 81.9564 226.737 81.9745 226.574C82.2514 224.07 83.034 221.578 84.238 219.362C84.9905 217.984 85.9115 216.695 86.8025 215.443L94.7609 204.288C94.8573 204.156 95.0439 204.12 95.1823 204.216C95.3148 204.312 95.3509 204.499 95.2546 204.637L87.2961 215.793C86.4112 217.033 85.5022 218.309 84.7677 219.651C83.5999 221.794 82.8413 224.214 82.5765 226.641C82.5524 226.791 82.426 226.905 82.2755 226.905Z" stroke="#00725E" stroke-opacity="0.4" stroke-width="0.602" stroke-miterlimit="10"/>
<path d="M85.8579 193.29C85.8098 193.29 85.7677 193.278 85.7195 193.26C82.9804 191.87 77.7611 190.569 77.7069 190.551C77.5443 190.509 77.448 190.346 77.4841 190.184C77.5263 190.021 77.6888 189.925 77.8513 189.961C78.0681 190.015 83.1911 191.292 85.9904 192.718C86.1409 192.797 86.1951 192.977 86.1228 193.122C86.0747 193.23 85.9663 193.29 85.8579 193.29Z" stroke="#00725E" stroke-opacity="0.4" stroke-width="0.602" stroke-miterlimit="10"/>
<path d="M84.2079 189.919C84.0996 189.919 83.9973 189.865 83.9431 189.762C83.5879 189.118 83.1484 188.528 82.6488 188.017C81.6073 186.957 80.2709 186.217 78.9766 185.5C78.8321 185.422 78.7779 185.235 78.8562 185.091C78.9344 184.946 79.1211 184.892 79.2655 184.97C80.596 185.705 81.9745 186.469 83.0762 187.589C83.618 188.137 84.0876 188.769 84.4668 189.467C84.5451 189.612 84.4909 189.798 84.3464 189.877C84.3103 189.907 84.2561 189.919 84.2079 189.919Z" stroke="#00725E" stroke-opacity="0.4" stroke-width="0.602" stroke-miterlimit="10"/>
<path d="M-31.3774 250.661C-31.5098 250.661 -31.6362 250.57 -31.6663 250.432C-31.7085 250.269 -31.6121 250.107 -31.4496 250.065C-30.8958 249.926 24.2715 235.966 38.569 233.654C47.4666 232.215 55.0518 233.377 61.15 234.316C64.9607 234.9 68.2476 235.406 70.8844 235.117C74.2014 234.75 78.0181 234.948 81.7023 235.135C85.7899 235.346 89.6547 235.538 92.6587 235.003C98.2513 233.997 110.568 230.873 113.933 228.784C116.426 227.237 116.992 226.051 117.533 224.907C117.696 224.558 117.852 224.233 118.057 223.902C118.677 222.896 121.151 221.482 123.337 220.242C124.348 219.664 125.311 219.116 125.925 218.7C126.864 218.062 129.959 215.775 130.296 213.156C130.585 210.899 131.608 202.236 131.62 202.152C131.632 202.067 131.674 201.989 131.747 201.941C132.65 201.291 135.292 198.991 136.304 197.462C136.581 197.041 137.147 196.144 137.869 194.994C139.819 191.887 143.088 186.692 145.075 184.007L145.237 183.784C147.519 180.708 150.354 176.874 150.324 176.247C150.288 175.796 147.706 173.864 145.039 173.948C142.589 174.026 140.801 176.91 140.783 176.94C140.728 177.03 140.608 177.084 140.524 177.084C140.5 177.084 137.923 177.06 136.328 178.059C134.702 179.077 130.952 183.911 130.916 183.959C130.844 184.055 130.717 184.098 130.597 184.067C130.482 184.037 130.392 183.935 130.374 183.815C130.043 181.334 129.345 179.131 128.869 179.101C127.858 179.041 125.889 179.781 123.939 181.551C122.078 183.243 122.078 189.618 122.078 189.684C122.078 189.756 122.054 189.823 122.006 189.883C120.874 191.213 112.874 194.079 111.971 194.398C111.887 194.428 111.796 194.416 111.718 194.374C111.64 194.332 111.586 194.253 111.574 194.163C111.574 194.157 111.519 193.91 111.261 193.754C110.96 193.579 110.484 193.579 109.888 193.772C108.148 194.313 106.523 196.703 106.511 196.727C106.481 196.776 106.432 196.812 106.378 196.836C106.113 196.95 99.8285 199.617 96.662 198.455C93.5858 197.329 86.0427 193.429 85.7237 193.26C85.6454 193.218 85.5852 193.146 85.5672 193.061C85.513 192.814 85.2902 190.515 94.6453 185.898L95.2774 185.584C104.103 181.226 105.463 180.558 108.979 176.368C111.351 173.544 111.67 169.818 110.61 167.85C110.358 167.38 109.786 166.609 108.822 166.724C107.408 166.886 104.464 168.421 101.057 170.203C97.7757 171.913 94.0554 173.851 90.925 174.947C88.3063 175.862 85.9163 176.482 83.6046 177.084C80.3237 177.939 77.2234 178.74 73.8944 180.293C68.0008 183.032 50.7294 192.772 48.2251 194.771C45.7509 196.746 45.0104 196.926 26.0956 201.489L21.8394 202.519C-0.7777 207.985 -41.9846 204.885 -42.4 204.854C-42.5685 204.842 -42.6889 204.698 -42.6769 204.529C-42.6649 204.361 -42.5204 204.228 -42.3518 204.252C-41.9364 204.283 -0.825861 207.377 21.701 201.929L25.9571 200.899C44.7516 196.366 45.486 196.186 47.8579 194.295C50.3803 192.285 67.7299 182.496 73.6476 179.745C77.0248 178.174 80.1552 177.361 83.4662 176.5C85.7658 175.904 88.1437 175.284 90.7383 174.375C93.8266 173.292 97.5229 171.365 100.786 169.662C104.247 167.856 107.239 166.296 108.762 166.122C109.743 166.013 110.586 166.519 111.146 167.561C112.302 169.704 111.983 173.725 109.442 176.747C105.843 181.039 104.47 181.714 95.5483 186.12L94.9162 186.433C87.2829 190.202 86.3076 192.297 86.1812 192.814C87.3551 193.416 94.0855 196.866 96.8727 197.883C99.6419 198.895 105.331 196.613 106.065 196.306C106.372 195.867 107.931 193.748 109.713 193.188C110.502 192.941 111.134 192.959 111.592 193.242C111.826 193.386 111.971 193.567 112.055 193.724C114.596 192.808 120.429 190.581 121.489 189.558C121.495 188.619 121.615 182.845 123.541 181.1C125.636 179.203 127.755 178.427 128.917 178.493C130.007 178.559 130.621 181.431 130.874 183.026C131.927 181.702 134.618 178.409 136.009 177.536C137.526 176.585 139.729 176.482 140.361 176.47C140.777 175.838 142.546 173.412 145.021 173.334C147.639 173.256 150.854 175.164 150.926 176.199C150.974 176.946 149.295 179.306 145.719 184.134L145.556 184.356C143.588 187.017 140.325 192.206 138.381 195.301C137.652 196.463 137.086 197.36 136.803 197.781C135.744 199.382 133.161 201.622 132.204 202.338C132.072 203.434 131.163 211.109 130.892 213.222C130.531 216.01 127.533 218.321 126.262 219.188C125.624 219.622 124.655 220.175 123.632 220.759C121.615 221.909 119.111 223.336 118.569 224.215C118.382 224.516 118.232 224.829 118.075 225.16C117.521 226.328 116.895 227.652 114.252 229.296C110.833 231.421 98.3958 234.581 92.7671 235.593C89.6969 236.146 85.8019 235.948 81.6782 235.737C78.0121 235.55 74.2255 235.358 70.9566 235.719C68.2416 236.02 64.9186 235.508 61.0658 234.918C55.0157 233.991 47.4786 232.835 38.6774 234.256C24.404 236.562 -30.7332 250.516 -31.2931 250.661C-31.3232 250.661 -31.3533 250.661 -31.3774 250.661Z" stroke="#00725E" stroke-opacity="0.4" stroke-width="0.602" stroke-miterlimit="10"/>
<path d="M99.101 220.145C98.9987 220.145 98.9024 220.097 98.8422 220.001C98.7579 219.862 98.8 219.676 98.9385 219.585C100.594 218.562 106.409 216.852 107.571 216.515C107.836 214.757 109.72 211.735 110.16 211.043C109.774 210.176 107.824 205.727 106.807 203.006C105.663 199.936 105.94 196.661 105.952 196.523C105.964 196.36 106.114 196.24 106.277 196.252C106.439 196.264 106.566 196.414 106.548 196.577C106.548 196.607 106.277 199.858 107.372 202.796C108.486 205.794 110.75 210.898 110.774 210.947C110.816 211.043 110.804 211.145 110.75 211.236C110.726 211.272 108.275 215.034 108.143 216.768C108.131 216.894 108.047 217.003 107.926 217.033C107.86 217.051 100.985 219.019 99.2515 220.091C99.2094 220.127 99.1552 220.145 99.101 220.145Z" stroke="#00725E" stroke-opacity="0.4" stroke-width="0.602" stroke-miterlimit="10"/>
<path d="M97.3853 225.058C97.3432 225.058 97.2951 225.046 97.2529 225.028C97.1024 224.955 97.0422 224.775 97.1145 224.624C97.1325 224.588 98.8302 221.012 99.3298 217.46C99.3539 217.298 99.5044 217.184 99.6669 217.202C99.8295 217.226 99.9439 217.376 99.9258 217.539C99.4141 221.187 97.7285 224.733 97.6563 224.883C97.6081 224.997 97.4997 225.058 97.3853 225.058Z" stroke="#00725E" stroke-opacity="0.4" stroke-width="0.602" stroke-miterlimit="10"/>
<path d="M109.726 219.17C109.642 219.17 109.563 219.134 109.503 219.068L107.625 216.949C107.517 216.822 107.529 216.636 107.649 216.521C107.776 216.413 107.962 216.419 108.077 216.545L109.955 218.664C110.063 218.791 110.051 218.977 109.931 219.092C109.871 219.146 109.798 219.17 109.726 219.17Z" stroke="#00725E" stroke-opacity="0.4" stroke-width="0.602" stroke-miterlimit="10"/>
<path d="M111.623 211.723C111.593 211.723 111.563 211.717 111.533 211.711L110.413 211.362C110.256 211.314 110.166 211.145 110.214 210.983C110.262 210.826 110.431 210.736 110.593 210.784L111.713 211.133C111.87 211.181 111.96 211.35 111.912 211.512C111.87 211.645 111.755 211.723 111.623 211.723Z" stroke="#00725E" stroke-opacity="0.4" stroke-width="0.602" stroke-miterlimit="10"/>
<path d="M118.305 224.359C118.281 224.359 118.257 224.359 118.227 224.347C118.064 224.305 117.968 224.143 118.01 223.98C119.539 218.087 121.05 211.459 120.821 210.778C120.526 209.893 118.889 207.004 116.222 202.639C114.29 199.479 111.629 194.296 111.599 194.241C111.521 194.091 111.581 193.91 111.731 193.838C111.882 193.76 112.062 193.82 112.135 193.971C112.159 194.025 114.807 199.184 116.734 202.326C118.642 205.439 120.996 209.4 121.393 210.586C121.779 211.742 119.13 222.072 118.594 224.131C118.564 224.269 118.438 224.359 118.305 224.359Z" stroke="#00725E" stroke-opacity="0.4" stroke-width="0.602" stroke-miterlimit="10"/>
<path d="M119.923 208.617C119.893 208.617 119.863 208.611 119.833 208.605C119.676 208.557 119.586 208.388 119.634 208.225C119.658 208.141 122.271 199.599 122.68 197.468C123.096 195.313 121.5 189.822 121.482 189.762C121.434 189.6 121.524 189.437 121.687 189.389C121.843 189.341 122.012 189.431 122.06 189.594C122.126 189.822 123.716 195.289 123.27 197.582C122.855 199.743 120.314 208.051 120.206 208.4C120.176 208.533 120.055 208.617 119.923 208.617Z" stroke="#00725E" stroke-opacity="0.4" stroke-width="0.602" stroke-miterlimit="10"/>
<path d="M131.909 202.483C131.897 202.483 131.885 202.483 131.873 202.483C131.71 202.465 131.59 202.314 131.608 202.152C131.668 201.634 131.734 201.14 131.795 200.653C132.156 197.763 132.445 195.481 131.987 193.073C131.446 190.232 130.386 183.887 130.374 183.827C130.344 183.664 130.458 183.508 130.621 183.477C130.783 183.447 130.94 183.562 130.97 183.724C130.982 183.791 132.041 190.124 132.583 192.959C133.059 195.457 132.752 197.901 132.397 200.725C132.336 201.206 132.27 201.706 132.21 202.218C132.192 202.368 132.06 202.483 131.909 202.483Z" stroke="#00725E" stroke-opacity="0.4" stroke-width="0.602" stroke-miterlimit="10"/>
<path d="M131.283 187.679C131.193 187.679 131.109 187.643 131.049 187.571C130.946 187.444 130.964 187.252 131.091 187.149C131.127 187.119 134.546 184.326 136.009 182.225C137.502 180.082 140.259 176.632 140.283 176.596C140.386 176.47 140.578 176.446 140.705 176.548C140.837 176.651 140.855 176.843 140.753 176.97C140.723 177.006 137.978 180.437 136.503 182.568C134.992 184.741 131.614 187.499 131.47 187.619C131.416 187.655 131.35 187.679 131.283 187.679Z" stroke="#00725E" stroke-opacity="0.4" stroke-width="0.602" stroke-miterlimit="10"/>
<path d="M114.718 199.744C114.592 199.744 114.471 199.659 114.429 199.527C114.381 199.37 114.471 199.202 114.628 199.154C116.343 198.636 122.562 193.982 122.628 193.934C122.761 193.832 122.947 193.862 123.05 193.994C123.152 194.127 123.122 194.313 122.989 194.416C122.731 194.608 116.62 199.178 114.802 199.725C114.778 199.744 114.748 199.744 114.718 199.744Z" stroke="#00725E" stroke-opacity="0.4" stroke-width="0.602" stroke-miterlimit="10"/>
<path d="M119.863 215.817C116.516 214.589 113.169 213.361 109.822 212.133C109.479 212.006 109.094 212.253 108.949 212.566C108.69 212.777 108.57 213.126 108.829 213.481C110.954 216.383 113.56 218.887 116.528 220.892C113.35 220.513 110.346 218.857 108.431 216.239C107.865 215.462 106.577 216.245 107.149 217.033C109.888 220.784 114.584 222.933 119.219 222.421C119.936 222.343 120.273 221.398 119.568 221.006C116.462 219.285 113.693 217.009 111.399 214.312C114.096 215.305 116.793 216.293 119.496 217.286C119.881 217.425 120.321 217.099 120.411 216.738C120.519 216.299 120.249 215.956 119.863 215.817Z" stroke="#00725E" stroke-opacity="0.4" stroke-width="0.602" stroke-miterlimit="10"/>
<path d="M33.2122 238.476C31.4844 242.202 29.1547 245.814 25.2959 246.796C23.6283 247.217 21.8404 247.085 20.227 247.674C18.8003 248.198 17.6384 249.246 16.3983 250.125C13.3642 252.28 9.68603 253.508 5.97169 253.604C2.81119 253.688 -0.409516 252.984 -3.4737 253.773C-8.16328 254.977 -11.2515 259.287 -14.9599 262.399C-19.9324 266.571 -28.9865 268.805 -35.4881 268.419C-40.2258 247.59 -44.813 220.344 -49.5508 199.514C-46.1073 198.786 -43.0853 197.046 -39.4191 195.144C-33.977 192.333 -28.6192 189.07 -22.5992 187.938C-18.2949 187.131 -13.7799 187.474 -9.65022 188.925C-6.71246 189.955 -3.91918 191.544 -0.824895 191.911C3.39513 192.405 7.4827 190.575 11.5944 189.503C17.5843 187.95 23.9775 188.028 29.9313 189.708C27.6918 194.747 25.4163 200.086 23.3033 206.149C22.4845 208.508 21.72 210.946 21.7501 213.445C21.7742 216.021 22.6471 218.508 23.6103 220.891C26.1146 227.098 29.3413 233.01 33.2122 238.476Z" stroke="#00725E" stroke-opacity="0.4" stroke-width="0.602" stroke-miterlimit="10"/>
<path d="M28.9152 243.424C18.0491 232.637 13.0946 216.846 16.0023 201.796C16.8511 197.383 18.326 193.115 20.3969 189.13C20.9326 188.101 19.3735 187.186 18.8377 188.221C15.0391 195.535 13.1307 203.795 13.3836 212.036C13.6183 219.88 15.8397 227.604 19.7347 234.406C21.8898 238.175 24.5627 241.648 27.6449 244.707C28.4637 245.525 29.7399 244.249 28.9152 243.424Z" stroke="#00725E" stroke-opacity="0.4" stroke-width="0.602" stroke-miterlimit="10"/>
<path d="M19.7457 246.339C10.0475 234.852 4.91841 219.941 5.47225 204.921C5.64081 200.382 6.3271 195.879 7.49498 191.484C7.79598 190.359 6.05018 189.883 5.7552 191.003C1.63752 206.468 3.62411 223.168 11.3117 237.212C13.3404 240.915 15.7484 244.388 18.4694 247.615C19.2219 248.506 20.4922 247.223 19.7457 246.339Z" stroke="#00725E" stroke-opacity="0.4" stroke-width="0.602" stroke-miterlimit="10"/>
</g>
<mask id="mask1_408_1542" style="mask-type:luminance" maskUnits="userSpaceOnUse" x="6" y="0" width="301" height="302">
<path d="M307 0.331055H6V301.331H307V0.331055Z" fill="white"/>
</mask>
<g mask="url(#mask1_408_1542)">
<path d="M336.42 94.9946C335.567 95.4241 334.654 95.7558 333.705 95.9985H333.704C331.422 96.5885 328.944 96.6822 326.521 96.564L325.487 96.5015C324.288 96.4154 323.094 96.2933 321.882 96.1812L320.662 96.0737C319.415 95.9733 318.167 95.9001 316.921 95.9038L316.387 95.9106C314.928 95.9373 313.477 96.0803 312.049 96.4155L311.438 96.5718C309.507 97.1012 307.705 97.9903 305.932 98.8472C304.149 99.7087 302.393 100.539 300.515 100.988C299.825 101.153 299.127 101.265 298.415 101.342C296.439 101.561 294.441 101.516 292.411 101.61C290.401 101.703 288.394 101.933 286.503 102.718H286.502C286.348 102.783 286.195 102.851 286.044 102.922L285.602 103.144C283.95 103.998 282.499 105.198 281.068 106.352C279.628 107.514 278.205 108.631 276.573 109.375C274.297 110.41 271.67 110.6 269.232 110L269.231 110C267.858 109.665 266.551 109.084 265.404 108.265L265.243 108.15L265.073 108.253C263.265 109.35 261.458 110.434 259.649 111.525C258.581 110.729 257.566 109.869 256.6 108.954C249.578 102.308 245.302 92.7532 245.159 83.0835V83.0806L245.151 82.5542C245.149 82.0858 245.159 81.6178 245.181 81.1519C247.651 79.9077 250.121 78.6583 252.591 77.4087L252.746 77.3306L252.756 77.1567C252.997 72.8265 253.704 68.2847 256.748 65.686C256.964 65.505 257.191 65.3295 257.436 65.1606C258.843 64.2003 260.494 63.7514 262.231 63.3677C263.953 62.9875 265.775 62.6704 267.432 61.9575C270.315 60.7178 272.458 58.4277 274.516 56.0991L275.395 55.1011C276.411 53.9459 277.431 52.8196 278.549 51.8149L278.55 51.814C279.017 51.3879 279.508 50.9845 280.017 50.6118L280.018 50.6128C282.182 49.0338 284.678 48.0575 287.263 47.1577C289.834 46.2624 292.505 45.4384 294.949 44.1646L294.95 44.1655C295.482 43.8906 296.002 43.5913 296.509 43.2769L297.011 42.9585C299.282 41.487 301.325 39.6932 303.323 37.8628C305.327 36.0274 307.281 34.1592 309.396 32.5103H309.397C315.093 28.0572 322.058 25.2706 329.236 24.438L336.42 94.9946Z" stroke="#00725E" stroke-opacity="0.4" stroke-width="0.602"/>
<path d="M244.578 83.6904C244.886 93.1954 249.095 102.526 255.925 109.145C253.548 110.886 251.649 113.143 249.959 115.578C248.206 118.105 246.653 120.86 245.036 123.424C241.526 128.986 237.251 134.187 231.689 137.614C227.991 139.891 223.851 141.316 219.778 142.974C212.03 146.118 204.625 150.106 197.728 154.831C197.617 154.905 197.52 154.97 197.424 155.023L197.266 155.11L197.269 155.291C197.292 156.696 197.109 158.103 196.576 159.378H196.575C195.937 160.908 194.756 162.235 193.241 162.819H193.24C192.996 162.915 192.814 162.954 192.669 162.909H192.67C192.537 162.867 192.398 162.742 192.266 162.554V162.553L192.262 162.548L192.163 162.408C191.686 161.699 191.449 160.841 191.222 159.944C190.262 156.133 189.65 152.24 189.002 148.339C188.355 144.443 187.672 140.542 186.571 136.739L186.371 136.049L186.02 136.676C183.802 140.627 181.961 144.788 180.138 148.922L180.137 148.923C179.861 149.552 179.572 150.222 179.42 150.931C179.25 151.723 179.268 152.555 179.239 153.306V153.307C179.162 155.4 178.701 157.472 177.901 159.414C177.537 160.288 177.04 161.164 176.411 161.84C175.783 162.514 175.037 162.975 174.165 163.06C173.655 163.109 173.153 162.992 172.85 162.685V162.684C172.67 162.502 172.559 162.26 172.489 161.968C172.418 161.672 172.394 161.349 172.369 161.014V161.013C172.248 159.377 171.992 157.754 171.603 156.166V156.165C171.375 155.244 171.128 154.387 171.1 153.5V153.499C171.065 152.567 171.288 151.651 171.524 150.693C172.552 146.539 173.7 142.415 174.969 138.333L174.462 138.038C172.535 140.103 170.615 142.168 168.688 144.239H168.688C167.094 145.96 165.496 147.667 163.533 148.852C161.567 150.035 159.188 150.637 157.051 150.001H157.052C156.637 149.877 156.296 149.698 156.13 149.441L156.069 149.327C156.001 149.155 155.996 148.956 156.023 148.724V148.722C156.129 147.784 156.652 146.933 157.201 146.048L157.202 146.049C159.549 142.305 161.91 138.553 164.258 134.803L164.257 134.802C165.406 132.973 166.552 131.146 167.765 129.368L168.288 128.609C169.291 127.181 170.33 125.805 171.577 124.629V124.628C173.795 122.535 176.549 121.18 179.395 119.871C182.226 118.568 185.156 117.308 187.639 115.408L187.713 115.352L187.742 115.264C188.388 113.326 189.153 111.436 190.276 109.774L190.506 109.445C191.743 107.731 193.435 106.298 195.399 105.66L195.489 105.632L195.546 105.556C196.964 103.686 199.544 102.919 202.018 102.356L202.019 102.357C211.637 100.197 221.802 98.8578 230.505 94.0801L231.343 93.6064C234.665 91.6786 237.662 89.2614 240.627 86.874C241.944 85.8097 243.261 84.7497 244.578 83.6904ZM196.81 133.715L196.105 135.058L196.059 135.146L196.074 135.245C196.187 135.947 196.434 138.373 196.654 140.641C196.764 141.771 196.867 142.857 196.942 143.66C196.98 144.062 197.011 144.393 197.032 144.623C197.043 144.738 197.051 144.828 197.057 144.89C197.059 144.92 197.062 144.943 197.063 144.959C197.064 144.967 197.064 144.974 197.064 144.978C197.065 144.979 197.065 144.98 197.065 144.981V144.983L197.129 145.673L197.59 145.156C198.029 144.664 198.493 144.194 198.966 143.733C199.171 143.534 199.372 143.339 199.579 143.149L199.806 142.941L199.594 142.719L199.467 142.587L199.458 142.578L199.39 142.497C199.316 142.396 199.228 142.234 199.131 142.002C199.006 141.703 198.88 141.323 198.755 140.886C198.505 140.012 198.269 138.936 198.063 137.886C197.859 136.836 197.686 135.818 197.564 135.062C197.504 134.683 197.456 134.37 197.424 134.152C197.408 134.044 197.395 133.958 197.387 133.9C197.383 133.872 197.379 133.85 197.377 133.835C197.376 133.828 197.376 133.822 197.375 133.818C197.375 133.817 197.374 133.815 197.374 133.814V133.812L197.243 132.888L196.81 133.715ZM207.019 126.629H207.018C207.017 126.629 207.017 126.631 207.017 126.632C207.016 126.634 207.014 126.637 207.013 126.642C207.009 126.65 207.005 126.663 206.999 126.679C206.986 126.711 206.967 126.759 206.943 126.82C206.896 126.943 206.828 127.12 206.745 127.338C206.58 127.774 206.356 128.374 206.125 129.03C205.666 130.333 205.163 131.893 205.031 132.825C204.897 133.78 205.087 134.984 205.299 135.924C205.406 136.399 205.521 136.817 205.609 137.116C205.653 137.266 205.691 137.386 205.718 137.469C205.731 137.51 205.742 137.543 205.749 137.565C205.753 137.576 205.756 137.585 205.758 137.591C205.759 137.594 205.759 137.596 205.76 137.598L205.761 137.6L206.046 137.503L205.761 137.601L205.904 138.019L206.241 137.732L214.446 130.755L214.574 130.646L214.549 130.48C214.502 130.17 214.324 129.888 214.095 129.638C213.863 129.385 213.558 129.144 213.214 128.916C212.526 128.461 211.646 128.036 210.788 127.674C209.927 127.31 209.077 127.004 208.442 126.79C208.125 126.683 207.861 126.598 207.676 126.54C207.584 126.511 207.511 126.489 207.461 126.474C207.436 126.466 207.416 126.461 207.403 126.457C207.397 126.455 207.392 126.453 207.389 126.452C207.387 126.452 207.386 126.451 207.385 126.451L207.384 126.45H207.383L207.119 126.373L207.019 126.629Z" stroke="#00725E" stroke-opacity="0.4" stroke-width="0.602"/>
<path d="M246.268 83.2646C246.263 83.267 246.26 83.2673 246.259 83.2676L252.188 80.084H252.188L246.268 83.2646Z" stroke="#00725E" stroke-opacity="0.4" stroke-width="0.602"/>
<path d="M253.91 78.6885C254.769 83.7193 258.482 88.2404 263.233 90.1104C258.422 88.2263 254.782 83.7926 253.907 78.6855V78.6846L253.91 78.6885Z" stroke="#00725E" stroke-opacity="0.4" stroke-width="0.602"/>
<path d="M262.427 89.7305C261.15 94.2768 261.731 99.2486 264.019 103.373V103.376L264.015 103.377C261.726 99.2523 261.146 94.2743 262.423 89.7295C262.424 89.7261 262.426 89.7248 262.426 89.7246L262.427 89.7236C262.427 89.7253 262.427 89.7275 262.427 89.7305Z" stroke="#00725E" stroke-opacity="0.4" stroke-width="0.602"/>
<mask id="path-33-inside-1_408_1542" fill="white">
<path d="M246.947 89.6738C246.844 89.6738 246.736 89.6196 246.682 89.5172C246.604 89.3727 246.652 89.1861 246.796 89.1079L253.635 85.3093C253.779 85.231 253.96 85.2792 254.044 85.4236C254.123 85.5681 254.074 85.7547 253.93 85.833L247.091 89.6316C247.049 89.6617 246.995 89.6738 246.947 89.6738Z"/>
</mask>
<path d="M246.682 89.5172L247.214 89.2355L247.211 89.2305L246.682 89.5172ZM246.796 89.1079L247.083 89.6372L247.089 89.6341L246.796 89.1079ZM253.635 85.3093L253.348 84.7799L253.343 84.783L253.635 85.3093ZM254.044 85.4236L254.574 85.1369L254.569 85.1285L254.564 85.1203L254.044 85.4236ZM253.93 85.833L253.643 85.3036L253.638 85.3067L253.93 85.833ZM247.091 89.6316L246.799 89.1053L246.769 89.1219L246.741 89.1417L247.091 89.6316ZM246.947 89.6738V89.0718C247.04 89.0718 247.152 89.1182 247.214 89.2356L246.682 89.5172L246.15 89.7989C246.32 90.121 246.648 90.2758 246.947 90.2758V89.6738ZM246.682 89.5172L247.211 89.2305C247.279 89.3554 247.253 89.545 247.083 89.6372L246.796 89.1079L246.509 88.5785C246.05 88.8273 245.928 89.3901 246.152 89.8039L246.682 89.5172ZM246.796 89.1079L247.089 89.6341L253.927 85.8355L253.635 85.3093L253.343 84.783L246.504 88.5816L246.796 89.1079ZM253.635 85.3093L253.922 85.8386C253.785 85.9129 253.606 85.8674 253.524 85.727L254.044 85.4236L254.564 85.1203C254.314 84.6909 253.774 84.5491 253.348 84.7799L253.635 85.3093ZM254.044 85.4236L253.515 85.7104C253.447 85.5854 253.473 85.3959 253.643 85.3037L253.93 85.833L254.217 86.3623C254.676 86.1136 254.798 85.5508 254.574 85.1369L254.044 85.4236ZM253.93 85.833L253.638 85.3067L246.799 89.1053L247.091 89.6316L247.383 90.1579L254.222 86.3593L253.93 85.833ZM247.091 89.6316L246.741 89.1417C246.788 89.1084 246.832 89.0917 246.863 89.0832C246.894 89.0746 246.922 89.0718 246.947 89.0718V89.6738V90.2758C247.081 90.2758 247.269 90.2445 247.441 90.1215L247.091 89.6316Z" fill="#00725E" fill-opacity="0.4" mask="url(#path-33-inside-1_408_1542)"/>
<path d="M248.924 92.9673H248.925H248.924Z" stroke="#00725E" stroke-opacity="0.4" stroke-width="0.602"/>
<path d="M250.443 96.6509H250.445L259.896 92.0464L259.895 92.0454L259.894 92.0464L259.893 92.0454L250.443 96.6509ZM250.443 96.6509L250.312 96.3804L250.442 96.6489L250.443 96.6509Z" stroke="#00725E" stroke-opacity="0.4" stroke-width="0.602"/>
<path d="M260.544 96.8774C257.659 98.3143 254.785 99.8599 252.001 101.483C251.993 101.486 251.987 101.489 251.981 101.49C251.98 101.49 251.978 101.491 251.977 101.491C254.768 99.864 257.649 98.3082 260.542 96.8735L260.543 96.8745L260.544 96.8735C260.544 96.8751 260.544 96.8761 260.544 96.8774Z" stroke="#00725E" stroke-opacity="0.4" stroke-width="0.602"/>
<path d="M261.32 101.784C261.321 101.783 261.322 101.783 261.322 101.783V101.782L261.32 101.784ZM261.32 101.784C260.368 102.38 259.43 103.009 258.512 103.666C259.191 103.18 259.88 102.709 260.578 102.256L261.32 101.783V101.784ZM258.41 103.738C257.447 104.43 256.504 105.152 255.592 105.903H255.59C256.502 105.153 257.446 104.431 258.41 103.738Z" stroke="#00725E" stroke-opacity="0.4" stroke-width="0.602"/>
<path d="M262.333 105.528C262.332 105.53 262.332 105.533 262.329 105.535L257.985 109.381L257.984 109.383V109.382C257.984 109.38 257.986 109.377 257.989 109.373L257.988 109.372L262.333 105.528Z" stroke="#00725E" stroke-opacity="0.4" stroke-width="0.602"/>
<mask id="path-40-inside-2_408_1542" fill="white">
<path d="M199.377 143.228C199.299 143.228 199.22 143.198 199.16 143.131C199.046 143.011 199.052 142.818 199.172 142.704C199.798 142.114 205.614 137.46 205.861 137.268C205.993 137.166 206.18 137.184 206.282 137.316C206.384 137.448 206.366 137.635 206.234 137.737C206.174 137.786 200.19 142.571 199.582 143.143C199.527 143.198 199.449 143.228 199.377 143.228Z"/>
</mask>
<path d="M199.16 143.131L199.606 142.726L199.597 142.717L199.16 143.131ZM199.172 142.704L198.759 142.266L198.758 142.267L199.172 142.704ZM205.861 137.268L205.492 136.792L205.49 136.793L205.861 137.268ZM206.234 137.737L205.866 137.261L205.858 137.267L206.234 137.737ZM199.582 143.143L199.169 142.705L199.163 142.711L199.156 142.718L199.582 143.143ZM199.377 143.228V142.626C199.458 142.626 199.545 142.66 199.606 142.726L199.16 143.131L198.715 143.536C198.896 143.735 199.14 143.83 199.377 143.83V143.228ZM199.16 143.131L199.597 142.717C199.714 142.84 199.705 143.029 199.587 143.14L199.172 142.704L198.758 142.267C198.399 142.608 198.378 143.182 198.724 143.546L199.16 143.131ZM199.172 142.704L199.585 143.142C200.186 142.576 205.973 137.943 206.231 137.742L205.861 137.268L205.49 136.793C205.254 136.978 199.411 141.652 198.759 142.266L199.172 142.704ZM205.861 137.268L206.229 137.744C206.115 137.832 205.92 137.832 205.806 137.684L206.282 137.316L206.758 136.948C206.44 136.535 205.871 136.499 205.492 136.792L205.861 137.268ZM206.282 137.316L205.806 137.684C205.718 137.571 205.718 137.375 205.866 137.261L206.234 137.737L206.602 138.214C207.014 137.895 207.051 137.326 206.758 136.948L206.282 137.316ZM206.234 137.737L205.858 137.267C205.828 137.291 204.316 138.501 202.735 139.775C201.171 141.037 199.495 142.398 199.169 142.705L199.582 143.143L199.994 143.582C200.276 143.316 201.896 141.999 203.491 140.713C205.07 139.439 206.58 138.232 206.61 138.208L206.234 137.737ZM199.582 143.143L199.156 142.718C199.191 142.683 199.228 142.661 199.26 142.648C199.293 142.635 199.332 142.626 199.377 142.626V143.228V143.83C199.601 143.83 199.835 143.741 200.007 143.569L199.582 143.143Z" fill="#00725E" fill-opacity="0.4" mask="url(#path-40-inside-2_408_1542)"/>
<path d="M197.046 126.592C198.957 126.122 201.449 126.143 203.517 126.293C205.575 126.442 207.179 126.717 207.303 126.74H207.304C207.302 126.741 207.301 126.742 207.3 126.742H207.299C207.122 126.711 205.577 126.457 203.609 126.311C201.552 126.157 198.992 126.118 197.047 126.597C195.758 126.913 194.401 127.152 192.955 127.405L192.954 127.406C190.118 127.91 187.129 128.433 184.718 129.604C182.921 130.48 180.42 132.639 178.384 134.558C176.432 136.396 174.871 138.048 174.697 138.233C174.693 138.237 174.691 138.239 174.688 138.24L174.688 138.239C174.843 138.073 176.458 136.355 178.48 134.456C180.531 132.531 182.963 130.458 184.716 129.604C187.115 128.44 190.057 127.916 192.951 127.402L192.95 127.401C194.387 127.149 195.752 126.908 197.045 126.592H197.046Z" stroke="#00725E" stroke-opacity="0.4" stroke-width="0.602"/>
<path d="M189.037 132.041C188.74 132.483 188.453 132.938 188.184 133.383C187.647 134.267 187.178 135.115 186.84 135.745C186.671 136.061 186.534 136.322 186.439 136.507C186.392 136.599 186.355 136.673 186.329 136.724C186.301 136.778 186.29 136.798 186.29 136.799L186.284 136.81H186.283C186.349 136.674 187.166 135.031 188.252 133.262C188.502 132.855 188.766 132.442 189.037 132.041ZM189.037 132.041C189.13 131.904 189.224 131.769 189.318 131.636C189.225 131.77 189.129 131.904 189.037 132.041Z" stroke="#00725E" stroke-opacity="0.4" stroke-width="0.602"/>
<path d="M202.274 128.208C199.452 128.895 197.035 129.112 195.108 129.112C192.644 129.112 190.988 128.756 190.333 128.585C191.505 128.881 195.907 129.751 202.274 128.208ZM202.966 128.032C202.744 128.091 202.525 128.147 202.308 128.2C202.525 128.147 202.744 128.09 202.966 128.032ZM203.803 127.8C203.556 127.872 203.312 127.939 203.071 128.003C203.312 127.939 203.556 127.872 203.802 127.8H203.803Z" stroke="#00725E" stroke-opacity="0.4" stroke-width="0.602"/>
<path d="M199.375 128.814C199.373 128.819 199.371 128.819 199.375 128.817L199.376 128.815L199.377 128.817V128.818C199.188 129.415 198.641 130.624 198.12 131.724C197.615 132.791 197.145 133.729 197.087 133.845C197.086 133.847 197.086 133.848 197.085 133.849C197.133 133.754 197.588 132.838 198.086 131.789C198.602 130.7 199.177 129.44 199.374 128.817L199.375 128.814Z" stroke="#00725E" stroke-opacity="0.4" stroke-width="0.602"/>
<mask id="path-46-inside-3_408_1542" fill="white">
<path d="M214.252 130.827C214.167 130.827 214.083 130.791 214.023 130.725C213.915 130.598 213.927 130.412 214.053 130.297C214.071 130.285 215.672 128.871 216.822 126.854C216.906 126.709 217.093 126.661 217.232 126.739C217.376 126.824 217.424 127.004 217.346 127.149C216.142 129.256 214.517 130.683 214.45 130.743C214.396 130.803 214.324 130.827 214.252 130.827Z"/>
</mask>
<path d="M214.023 130.725L213.566 131.116L213.572 131.123L213.577 131.13L214.023 130.725ZM214.053 130.297L213.719 129.796L213.682 129.821L213.649 129.851L214.053 130.297ZM216.822 126.854L216.302 126.55L216.299 126.556L216.822 126.854ZM217.232 126.739L217.535 126.219L217.528 126.215L217.232 126.739ZM217.346 127.149L217.869 127.448L217.875 127.436L217.346 127.149ZM214.45 130.743L214.045 130.297L214.023 130.318L214.003 130.34L214.45 130.743ZM214.252 130.827V130.225C214.337 130.225 214.414 130.26 214.468 130.32L214.023 130.725L213.577 131.13C213.752 131.321 213.998 131.429 214.252 131.429V130.827ZM214.023 130.725L214.48 130.333C214.588 130.459 214.568 130.643 214.457 130.744L214.053 130.297L213.649 129.851C213.285 130.18 213.241 130.738 213.566 131.116L214.023 130.725ZM214.053 130.297L214.387 130.798C214.402 130.788 214.413 130.78 214.416 130.777C214.422 130.773 214.426 130.77 214.428 130.768C214.433 130.764 214.437 130.761 214.44 130.759C214.444 130.755 214.449 130.751 214.452 130.748C214.458 130.743 214.466 130.736 214.474 130.729C214.49 130.715 214.511 130.696 214.537 130.672C214.589 130.625 214.662 130.556 214.751 130.469C214.93 130.295 215.177 130.045 215.461 129.73C216.025 129.102 216.742 128.209 217.345 127.152L216.822 126.854L216.299 126.556C215.752 127.515 215.094 128.338 214.566 128.925C214.303 129.217 214.074 129.448 213.912 129.606C213.831 129.685 213.767 129.745 213.723 129.785C213.701 129.805 213.685 129.819 213.675 129.828C213.67 129.833 213.667 129.835 213.667 129.836C213.645 129.854 213.68 129.822 213.719 129.796L214.053 130.297ZM216.822 126.854L217.342 127.157C217.262 127.295 217.086 127.348 216.935 127.264L217.232 126.739L217.528 126.215C217.101 125.974 216.551 126.124 216.302 126.55L216.822 126.854ZM217.232 126.739L216.928 127.259C216.788 127.177 216.742 126.999 216.817 126.862L217.346 127.149L217.875 127.436C218.106 127.009 217.964 126.47 217.535 126.219L217.232 126.739ZM217.346 127.149L216.823 126.85C215.669 128.869 214.105 130.243 214.045 130.297L214.45 130.743L214.855 131.188C214.855 131.189 214.899 131.149 214.952 131.1C215.009 131.048 215.086 130.976 215.181 130.884C215.369 130.701 215.626 130.441 215.919 130.116C216.503 129.467 217.239 128.549 217.869 127.447L217.346 127.149ZM214.45 130.743L214.003 130.34C214.085 130.249 214.189 130.225 214.252 130.225V130.827V131.429C214.459 131.429 214.708 131.357 214.898 131.145L214.45 130.743Z" fill="#00725E" fill-opacity="0.4" mask="url(#path-46-inside-3_408_1542)"/>
<mask id="path-48-inside-4_408_1542" fill="white">
<path d="M187.457 115.47C187.354 115.47 187.252 115.416 187.198 115.319C187.113 115.175 187.162 114.994 187.306 114.91C187.457 114.826 190.948 112.809 193.94 111.888C194.097 111.84 194.265 111.93 194.319 112.087C194.368 112.243 194.277 112.412 194.121 112.46C191.195 113.357 187.643 115.404 187.613 115.422C187.559 115.458 187.505 115.47 187.457 115.47Z"/>
</mask>
<path d="M187.198 115.319L187.722 115.024L187.718 115.016L187.198 115.319ZM187.306 114.91L187.012 114.385L187.003 114.39L187.306 114.91ZM193.94 111.888L193.763 111.313L193.763 111.313L193.94 111.888ZM194.319 112.087L194.895 111.91L194.892 111.9L194.888 111.89L194.319 112.087ZM194.121 112.46L194.297 113.035L194.298 113.035L194.121 112.46ZM187.613 115.422L187.303 114.905L187.291 114.913L187.279 114.921L187.613 115.422ZM187.457 115.47V114.868C187.559 114.868 187.664 114.92 187.722 115.024L187.198 115.319L186.673 115.615C186.84 115.911 187.15 116.072 187.457 116.072V115.47ZM187.198 115.319L187.718 115.016C187.802 115.161 187.75 115.348 187.609 115.43L187.306 114.91L187.003 114.39C186.573 114.641 186.425 115.189 186.678 115.623L187.198 115.319ZM187.306 114.91L187.6 115.435C187.765 115.343 191.198 113.362 194.117 112.463L193.94 111.888L193.763 111.313C190.698 112.256 187.148 114.308 187.012 114.385L187.306 114.91ZM193.94 111.888L194.117 112.463C193.947 112.516 193.797 112.417 193.751 112.284L194.319 112.087L194.888 111.89C194.734 111.444 194.246 111.164 193.763 111.313L193.94 111.888ZM194.319 112.087L193.744 112.264C193.693 112.099 193.786 111.933 193.944 111.884L194.121 112.46L194.298 113.035C194.769 112.89 195.042 112.387 194.895 111.91L194.319 112.087ZM194.121 112.46L193.944 111.884C190.944 112.804 187.34 114.883 187.303 114.905L187.613 115.422L187.923 115.938C187.923 115.938 188.804 115.429 190.049 114.809C191.297 114.188 192.882 113.469 194.297 113.035L194.121 112.46ZM187.613 115.422L187.279 114.921C187.335 114.884 187.399 114.868 187.457 114.868V115.47V116.072C187.61 116.072 187.783 116.032 187.947 115.923L187.613 115.422Z" fill="#00725E" fill-opacity="0.4" mask="url(#path-48-inside-4_408_1542)"/>
<path d="M196.262 105.192C196.368 105.174 196.481 105.158 196.599 105.14C196.481 105.158 196.368 105.174 196.262 105.192ZM196.838 105.102C196.851 105.1 196.864 105.098 196.877 105.096C197.006 105.077 197.139 105.062 197.273 105.045C197.124 105.064 196.978 105.081 196.838 105.102ZM197.494 105.017C197.581 105.007 197.669 105 197.756 104.991C197.668 105 197.581 105.007 197.494 105.017Z" stroke="#00725E" stroke-opacity="0.4" stroke-width="0.602"/>
<path d="M171.897 157.248C172.215 157.325 172.508 157.533 172.729 157.818L172.73 157.821C172.973 158.126 173.127 158.5 173.242 158.908V158.909C173.502 159.81 173.562 160.757 173.622 161.743C173.623 161.754 173.622 161.765 173.622 161.775C173.205 161.757 172.79 161.804 172.392 161.899C172.39 161.898 172.389 161.898 172.388 161.897C172.376 161.885 172.359 161.859 172.344 161.807C172.335 161.778 172.329 161.745 172.323 161.708L172.309 161.589C172.173 160.135 172.033 158.704 171.897 157.248Z" stroke="#00725E" stroke-opacity="0.4" stroke-width="0.602"/>
<path d="M159.87 141.993C160.005 141.912 160.181 141.909 160.371 141.995C160.563 142.081 160.732 142.246 160.821 142.435C161.014 142.845 160.957 143.347 160.831 143.899C160.417 145.656 159.5 147.286 158.227 148.559C158.171 148.615 158.125 148.657 158.083 148.686C158.042 148.714 158.02 148.719 158.013 148.719L157.998 148.72L157.983 148.723C157.963 148.727 157.93 148.722 157.813 148.688H157.812C157.496 148.598 157.18 148.505 156.864 148.414C156.624 148.344 156.383 148.274 156.142 148.205C156.264 147.833 156.472 147.471 156.704 147.085H156.705C157.626 145.551 158.54 144.022 159.455 142.487C159.563 142.309 159.654 142.171 159.758 142.076L159.866 141.996L159.87 141.993Z" stroke="#00725E" stroke-opacity="0.4" stroke-width="0.602"/>
<path d="M190.897 156.663C190.932 156.661 190.971 156.664 191.013 156.673L191.155 156.719C191.672 156.952 192.005 157.507 192.294 158.139L192.295 158.14C192.825 159.288 193.226 160.489 193.498 161.721C193.499 161.734 193.501 161.747 193.502 161.756C193.502 161.761 193.503 161.766 193.503 161.771C193.501 161.772 193.499 161.773 193.497 161.774L193.44 161.801L193.435 161.804C193.015 162 192.595 162.194 192.181 162.385C192.142 162.34 192.104 162.289 192.068 162.229C192.012 162.134 191.964 162.026 191.921 161.912L191.804 161.554L190.727 157.768C190.645 157.471 190.585 157.244 190.62 157.026V157.021C190.65 156.816 190.79 156.68 190.897 156.663Z" stroke="#00725E" stroke-opacity="0.4" stroke-width="0.602"/>
<path d="M198.24 148.105C198.262 148.107 198.296 148.118 198.351 148.175C198.411 148.239 198.468 148.329 198.53 148.439V148.44L198.534 148.446C199.194 149.547 200.067 150.517 201.091 151.292L201.052 151.374L201.524 151.626L201.525 151.627C201.725 151.764 201.793 151.891 201.785 152.009L201.784 152.017C201.781 152.086 201.753 152.159 201.684 152.246C201.612 152.335 201.514 152.421 201.396 152.517C200.579 153.174 199.703 153.767 198.795 154.29C198.47 154.473 198.185 154.621 197.896 154.65C197.794 154.66 197.7 154.659 197.617 154.646V154.645L197.608 154.644L197.489 154.623C197.212 154.559 196.942 154.398 196.679 154.167C196.378 153.904 196.106 153.566 195.864 153.227V153.226L195.711 153.008C195.363 152.501 195.096 152.002 195.096 151.475C195.096 151.021 195.299 150.576 195.586 150.151L195.587 150.15C196.081 149.411 196.771 148.807 197.564 148.396L197.571 148.392C197.732 148.303 197.895 148.229 198.078 148.153L198.089 148.148C198.151 148.119 198.199 148.107 198.24 148.105Z" stroke="#00725E" stroke-opacity="0.4" stroke-width="0.602"/>
<path d="M197.067 155.079C197.229 155.145 197.397 155.209 197.572 155.268V155.27C197.397 155.211 197.229 155.146 197.067 155.079ZM197.357 144.95L197.36 144.952C197.254 145.021 196.539 145.509 195.776 146.235C195.027 146.949 194.185 147.938 193.875 149.021L193.82 149.239C193.793 149.368 193.77 149.499 193.751 149.632C193.769 149.499 193.792 149.367 193.819 149.239C194.056 148.134 194.886 147.087 195.712 146.288C196.531 145.495 197.304 144.986 197.358 144.951L197.357 144.95Z" stroke="#00725E" stroke-opacity="0.4" stroke-width="0.602"/>
<path d="M244.863 83.0762C243.388 84.2621 241.913 85.4481 240.438 86.64C237.47 89.03 234.49 91.4319 231.191 93.3463C222.36 98.4814 211.921 99.8238 201.952 102.063C199.49 102.623 196.799 103.406 195.306 105.374C193.265 106.036 191.526 107.517 190.261 109.269C188.985 111.045 188.148 113.092 187.456 115.169C182.556 118.919 175.886 120.147 171.371 124.409C170.101 125.607 169.047 127.004 168.042 128.437C166.627 130.46 165.315 132.555 164.002 134.643C161.654 138.394 159.295 142.144 156.947 145.889C156.405 146.762 155.839 147.671 155.725 148.688C155.695 148.941 155.695 149.2 155.791 149.441C155.978 149.898 156.483 150.145 156.965 150.289C159.21 150.958 161.679 150.32 163.689 149.11C165.694 147.9 167.319 146.16 168.909 144.444C170.835 142.373 172.755 140.308 174.682 138.243C173.412 142.331 172.262 146.461 171.232 150.621C170.997 151.572 170.763 152.529 170.799 153.51C170.829 154.437 171.088 155.334 171.311 156.237C171.696 157.808 171.949 159.416 172.069 161.035C172.117 161.697 172.171 162.426 172.635 162.895C173.026 163.293 173.634 163.413 174.194 163.359C176.127 163.172 177.433 161.318 178.179 159.53C178.992 157.556 179.462 155.449 179.54 153.318C179.57 152.541 179.552 151.752 179.714 150.994C179.859 150.32 180.136 149.675 180.413 149.043C182.237 144.908 184.073 140.76 186.282 136.823C188.474 144.39 189.003 152.366 190.93 160.018C191.171 160.969 191.435 161.938 192.019 162.727C192.164 162.931 192.35 163.124 192.579 163.196C192.832 163.275 193.103 163.196 193.35 163.1C194.957 162.48 196.191 161.083 196.853 159.494C197.407 158.17 197.594 156.719 197.57 155.286C197.678 155.226 197.787 155.154 197.895 155.081C204.776 150.368 212.162 146.389 219.892 143.252C223.943 141.603 228.121 140.164 231.848 137.87C237.464 134.409 241.769 129.165 245.29 123.585C248.547 118.42 251.443 112.658 256.391 109.179M198.756 143.517C198.28 143.981 197.811 144.456 197.365 144.956C197.365 144.956 196.601 136.624 196.372 135.197L197.076 133.855C197.076 133.855 198.196 141.777 199.249 142.795L199.376 142.927C199.165 143.12 198.96 143.318 198.756 143.517ZM206.046 137.503C206.046 137.503 205.077 134.662 205.33 132.868C205.582 131.074 207.298 126.739 207.298 126.739C207.298 126.739 213.974 128.708 214.251 130.526L206.046 137.503Z" stroke="#00725E" stroke-opacity="0.4" stroke-width="0.602" stroke-miterlimit="10" stroke-linecap="round" stroke-linejoin="round"/>
<path d="M275.158 55.3623C275.872 56.2931 276.286 57.4092 276.283 58.6699C276.28 60.0568 275.771 61.6426 274.561 63.3682L274.556 63.377C273.149 65.5323 271.003 67.4432 268.585 68.5098C266.171 69.5747 263.505 69.7911 261.025 68.5977L261.004 68.5879L260.622 68.4326C258.869 67.6839 257.678 66.6622 256.949 65.5186C257.105 65.395 257.266 65.2729 257.437 65.1553L257.436 65.1543C258.843 64.194 260.494 63.7451 262.231 63.3613C263.953 62.9812 265.775 62.6641 267.432 61.9512C270.617 60.5818 272.897 57.931 275.158 55.3623Z" stroke="#00725E" stroke-opacity="0.4" stroke-width="0.602"/>
<path d="M296.675 43.1577C296.795 43.5736 296.881 44.0026 296.936 44.4409C297.131 47.5831 296.476 49.9705 295.308 51.6899C294.139 53.4095 292.441 54.4855 290.507 54.979C286.717 55.9462 282.034 54.6653 278.788 51.5884C279.183 51.2409 279.594 50.9099 280.017 50.6001L280.016 50.5991C282.18 49.0203 284.676 48.0458 287.261 47.146C289.833 46.2505 292.504 45.427 294.949 44.1528L294.948 44.1519C295.539 43.8464 296.115 43.5108 296.675 43.1577Z" stroke="#00725E" stroke-opacity="0.4" stroke-width="0.602"/>
<path d="M292.934 86.647C295.544 83.7418 299.506 83.0718 303.478 83.7896C307.452 84.508 311.369 86.609 313.8 89.144C315.744 91.5262 316.382 93.857 316.133 95.9116C314.762 95.95 313.398 96.0944 312.055 96.4097L311.443 96.5659C309.512 97.0953 307.71 97.9844 305.938 98.8413C304.155 99.7028 302.399 100.533 300.521 100.982C299.865 101.139 299.203 101.246 298.527 101.323C296.08 99.7419 293.885 97.3678 292.7 94.7437C291.507 92.1014 291.344 89.2316 292.934 86.647Z" stroke="#00725E" stroke-opacity="0.4" stroke-width="0.602"/>
<path d="M315.867 31.7954C319.906 29.5198 325.678 31.1055 327.528 35.4312V35.4321C328.442 37.699 328.198 40.1749 327.187 42.4868C326.175 44.8001 324.402 46.9305 322.3 48.48C320.196 50.0304 317.784 50.9831 315.498 50.9771C313.232 50.971 311.068 50.0236 309.414 47.73C308.129 45.1789 308.54 41.9027 309.898 38.8794C311.259 35.8532 313.537 33.1538 315.866 31.7944L315.867 31.7954Z" stroke="#00725E" stroke-opacity="0.4" stroke-width="0.602"/>
<path d="M276.07 92.312C277.936 91.6252 280.05 91.7693 282.29 93.2124C285.25 95.4944 286.119 99.3699 285.473 103.204C283.877 104.052 282.466 105.217 281.074 106.339C279.634 107.501 278.209 108.618 276.578 109.362C274.347 110.377 271.779 110.577 269.382 110.02C268.559 108.128 268.373 105.798 268.712 103.43C269.059 101.009 269.951 98.5721 271.235 96.5669C272.522 94.5591 274.187 93.0053 276.07 92.312Z" stroke="#00725E" stroke-opacity="0.4" stroke-width="0.602"/>
<path d="M297.598 60.1167C299.973 56.9794 303.951 55.7626 307.265 56.4595C308.918 56.8071 310.394 57.6286 311.425 58.9116C312.454 60.192 313.057 61.9535 312.932 64.2163C312.467 69.6021 309.104 75.3401 304.075 77.5122C301.359 78.3784 299.272 78.0906 297.744 77.1274C296.207 76.1581 295.184 74.4734 294.673 72.4556C293.646 68.4055 294.714 63.1598 297.576 60.1421L297.588 60.1304L297.598 60.1167Z" stroke="#00725E" stroke-opacity="0.4" stroke-width="0.602"/>
<path d="M277.382 70.4912C280.844 69.8988 284.378 70.4571 286.948 72.6162C288.327 74.7418 288.522 76.6944 287.964 78.4062C287.398 80.1414 286.043 81.6712 284.258 82.8906C280.677 85.3361 275.487 86.4487 271.915 85.5176H271.916C269.789 84.9571 268.191 83.2544 267.487 81.2373C266.786 79.2264 266.984 76.9419 268.39 75.2119C270.545 72.8357 273.904 71.0863 277.382 70.4912Z" stroke="#00725E" stroke-opacity="0.4" stroke-width="0.602"/>
<path d="M205.396 132.475C205.67 132.391 205.914 132.499 206.001 132.723L206.002 132.724C206.04 132.821 206.038 132.955 205.988 133.077C205.939 133.196 205.858 133.273 205.768 133.301C203.787 133.898 201.905 134.733 200.139 135.781L200.333 136.338C201.873 136.129 203.417 135.984 204.969 135.915L205.635 135.889C205.919 135.881 206.129 136.048 206.157 136.301C206.166 136.409 206.128 136.535 206.049 136.636C205.99 136.712 205.919 136.76 205.847 136.781L205.773 136.792C203.036 136.871 200.31 137.174 197.627 137.701C197.537 137.718 197.43 137.688 197.332 137.603C197.232 137.516 197.17 137.396 197.16 137.293L197.159 137.288C197.148 137.193 197.166 137.117 197.202 137.052L197.248 136.968L197.238 136.875C197.225 136.756 197.266 136.62 197.413 136.51L197.414 136.509C199.812 134.712 202.52 133.338 205.394 132.475H205.396Z" stroke="#00725E" stroke-opacity="0.4" stroke-width="0.602"/>
</g>
<path d="M152.848 67.2074C148.616 71 143.788 74.1243 138.593 76.436C136.877 70.6749 136.082 64.6368 136.269 58.6228C136.335 56.3774 136.744 53.7828 138.689 52.651C140.958 51.3266 144.023 53.0122 145.118 55.3961C146.214 57.7861 145.907 60.5553 145.576 63.1559C147.063 61.8315 148.646 60.4529 150.602 60.0737C152.553 59.6824 154.937 60.7298 155.262 62.6923C155.557 64.4502 154.178 66.0154 152.848 67.2074Z" stroke="#00725E" stroke-opacity="0.4" stroke-width="0.602" stroke-miterlimit="10"/>
<path d="M161.324 81.1734C160.283 81.5165 159.163 81.5105 158.073 81.4383C154.437 81.2276 150.843 80.4811 147.424 79.241L147.502 78.5306C149.627 74.6417 152.228 71.0116 155.232 67.7488C156.514 66.3582 158.338 64.9134 160.102 65.6057C161.667 66.2197 162.185 68.3267 161.619 69.91C161.059 71.4993 159.741 72.6792 158.477 73.7868C159.789 74.1661 161.137 74.5634 162.203 75.4183C163.268 76.2671 163.997 77.6938 163.612 79.0062C163.311 80.0657 162.353 80.8302 161.324 81.1734Z" stroke="#00725E" stroke-opacity="0.4" stroke-width="0.602" stroke-miterlimit="10"/>
<path d="M131.797 61.6207C132.303 62.4274 132.531 63.3726 132.7 64.3057C133.278 67.418 133.392 70.6026 133.055 73.745L132.435 73.8233C128.709 72.836 125.109 71.3972 121.738 69.5371C120.299 68.7484 118.704 67.5023 118.92 65.8709C119.113 64.4201 120.78 63.5472 122.237 63.6977C123.694 63.8421 124.964 64.709 126.162 65.5458C126.21 64.3599 126.265 63.1438 126.764 62.0602C127.258 60.9826 128.311 60.0736 129.503 60.1278C130.455 60.1699 131.297 60.8201 131.797 61.6207Z" stroke="#00725E" stroke-opacity="0.4" stroke-width="0.602" stroke-miterlimit="10"/>
<path d="M32.6289 145.1L35.8917 147.075L37.788 153.119L39.6783 147.069L42.9412 145.1L39.6783 143.126L37.788 137.082L35.8917 143.132L32.6289 145.1Z" stroke="#00725E" stroke-opacity="0.4" stroke-width="0.602" stroke-miterlimit="10"/>
<path d="M30.3037 130.983C32.5311 130.983 32.5371 134.445 30.3037 134.445C28.0763 134.445 28.0702 130.983 30.3037 130.983Z" stroke="#00725E" stroke-opacity="0.4" stroke-width="0.602" stroke-miterlimit="10"/>
<path d="M47.2255 130.983C49.4529 130.983 49.459 134.445 47.2255 134.445C44.9981 134.445 44.9921 130.983 47.2255 130.983Z" stroke="#00725E" stroke-opacity="0.4" stroke-width="0.602" stroke-miterlimit="10"/>
<path d="M58.7666 145.323C60.994 145.323 61 148.784 58.7666 148.784C56.5392 148.784 56.5331 145.323 58.7666 145.323Z" stroke="#00725E" stroke-opacity="0.4" stroke-width="0.602" stroke-miterlimit="10"/>
<path d="M55.1484 121.351L57.436 122.73L58.7665 126.968L60.0909 122.73L62.3785 121.351L60.0909 119.966L58.7665 115.734L57.436 119.972L55.1484 121.351Z" stroke="#00725E" stroke-opacity="0.4" stroke-width="0.602" stroke-miterlimit="10"/>
<path d="M120.82 261.665L124.089 263.64L125.979 269.684L127.876 263.634L131.139 261.665V261.659L127.876 259.691L125.979 253.641L124.089 259.691L120.82 261.665Z" fill="#00725E" fill-opacity="0.4"/>
<path d="M120.82 261.665L124.089 263.64L125.979 269.684L127.876 263.634L131.139 261.665V261.659L127.876 259.691L125.979 253.641L124.089 259.691L120.82 261.665Z" stroke="#00725E" stroke-opacity="0.4" stroke-width="0.602" stroke-miterlimit="10"/>
<path d="M118.503 247.548C120.73 247.548 120.736 251.01 118.503 251.01C116.275 251.01 116.269 247.548 118.503 247.548Z" fill="#00725E" fill-opacity="0.4" stroke="#00725E" stroke-opacity="0.4" stroke-width="0.602" stroke-miterlimit="10"/>
<path d="M135.425 247.548C137.652 247.548 137.658 251.01 135.425 251.01C133.197 251.01 133.191 247.548 135.425 247.548Z" fill="#00725E" fill-opacity="0.4" stroke="#00725E" stroke-opacity="0.4" stroke-width="0.602" stroke-miterlimit="10"/>
<path d="M255.46 187.884C257.687 187.884 257.693 191.345 255.46 191.345C253.233 191.345 253.226 187.884 255.46 187.884Z" fill="#00725E" fill-opacity="0.4" stroke="#00725E" stroke-opacity="0.4" stroke-width="0.602" stroke-miterlimit="10"/>
<path d="M237.032 215.154C239.26 215.154 239.266 218.616 237.032 218.616C234.805 218.616 234.799 215.154 237.032 215.154Z" fill="#00725E" fill-opacity="0.4" stroke="#00725E" stroke-opacity="0.4" stroke-width="0.602" stroke-miterlimit="10"/>
<path d="M231.276 189.618C233.503 189.618 233.509 193.079 231.276 193.079C229.049 193.079 229.049 189.618 231.276 189.618Z" fill="#00725E" fill-opacity="0.4" stroke="#00725E" stroke-opacity="0.4" stroke-width="0.602" stroke-miterlimit="10"/>
<path d="M239.957 202.061L242.245 203.44L243.575 207.678L244.899 203.44L247.187 202.061V202.055L244.899 200.677L243.575 196.438L242.245 200.677L239.957 202.061Z" fill="#00725E" fill-opacity="0.4"/>
<path d="M239.957 202.061L242.245 203.44L243.575 207.678L244.899 203.44L247.187 202.061V202.055L244.899 200.677L243.575 196.438L242.245 200.677L239.957 202.061Z" stroke="#00725E" stroke-opacity="0.4" stroke-width="0.602" stroke-miterlimit="10"/>
<path d="M222.825 207.678C225.053 207.678 225.059 211.139 222.825 211.139C220.598 211.139 220.592 207.678 222.825 207.678Z" fill="#00725E" fill-opacity="0.4" stroke="#00725E" stroke-opacity="0.4" stroke-width="0.602" stroke-miterlimit="10"/>
<path d="M206.553 60.6031L209.816 62.5777L211.706 68.6218L213.602 62.5717L216.865 60.6031V60.5971L213.602 58.6285L211.706 52.5845L209.816 58.6346L206.553 60.6031Z" stroke="#00725E" stroke-opacity="0.4" stroke-width="0.602" stroke-miterlimit="10"/>
<path d="M204.227 46.4863C206.455 46.4863 206.461 49.9478 204.227 49.9478C202 49.9478 201.994 46.4863 204.227 46.4863Z" stroke="#00725E" stroke-opacity="0.4" stroke-width="0.602" stroke-miterlimit="10"/>
<path d="M221.151 46.4863C223.379 46.4863 223.385 49.9478 221.151 49.9478C218.924 49.9478 218.918 46.4863 221.151 46.4863Z" stroke="#00725E" stroke-opacity="0.4" stroke-width="0.602" stroke-miterlimit="10"/>
<path d="M191.124 60.6035C193.351 60.6035 193.357 64.065 191.124 64.065C188.896 64.065 188.896 60.6035 191.124 60.6035Z" stroke="#00725E" stroke-opacity="0.4" stroke-width="0.602" stroke-miterlimit="10"/>
</svg>