<svg xmlns="http://www.w3.org/2000/svg" width="216" height="199" viewBox="0 0 216 199" fill="none">
<path opacity="0.5" d="M24.6957 93.0409C21.567 98.0009 18.2851 113.541 18.3825 122.885C18.3949 127.261 19.0196 133.69 19.7267 137.178C20.9709 143.089 20.9199 143.658 18.6891 145.777C12.8391 151.471 0.00938195 169.061 -6.87103 180.784C-14.5714 194.012 -23.6254 213.912 -23.0391 216.41C-22.5755 218.562 -19.9786 218.124 -19.0324 215.68C-13.9262 201.925 -1.89479 178.128 2.81834 172.332C3.98386 171.025 6.0105 171.179 16.7076 173.607C29.9246 176.61 37.9587 176.633 44.3197 173.808C48.5772 171.842 51.7774 167.797 52.0845 164.065C52.3415 160.58 49.1181 155.232 45.5393 153.219C39.813 150.064 28.8115 150.404 19.7784 154.037C14.1854 156.246 14.3841 155.901 24.9955 144.806C33.301 136.202 45.9892 125.015 52.3789 120.781L56.5397 118.024L62.2113 123.033C74.0478 133.473 85.6284 138.203 95.4466 136.722C107.317 134.951 113.303 125.104 106.647 118.288C102.654 114.198 84.1716 111.155 70.1766 112.302L64.564 112.706L68.4275 110.146C78.3836 103.549 99.8667 94.3393 115.75 89.9094C124.755 87.3637 125.2 87.3897 134.712 89.3198C150.277 92.4782 162.791 90.3874 174.53 82.6086C179.806 79.1131 181.392 77.6343 183.057 74.4995C185.219 70.5009 185.358 65.0628 183.339 62.0165C179.499 56.2212 168.129 55.8432 152.837 61.1647C144.894 63.8616 132.533 72.8005 128.041 79.0916C125.038 83.434 124.741 83.6309 120.907 84.4607C118.804 84.9986 113.064 86.6635 108.19 88.1825C100.495 90.6083 99.5803 90.6799 101.217 88.954C113.241 76.6028 123.66 54.7297 122.303 44.9367C121.066 36.4541 112.396 33.8589 103.654 39.5448C97.2896 43.6552 93.4617 51.1101 90.605 64.8713C89.3517 71.0479 88.3633 79.722 88.3999 84.2954C88.4616 88.7452 88.5483 93.0715 88.4964 93.9613C88.4677 95.3703 87.4276 96.0595 80.3727 99.4512C72.3771 103.359 47.1422 119.332 41.7399 124.088C40.253 125.394 37.6265 127.562 36.0654 128.917L33.1659 131.48L36.4244 124.296C40.4035 115.778 44.1948 103.75 44.8286 98.0908C46.2262 84.548 32.2197 80.9984 24.6957 93.0409ZM35.7304 89.6851C41.6877 89.8007 41.9373 97.7613 36.4049 113.616C33.5886 121.791 28.2425 132.925 27.6025 131.959C27.1594 131.29 29.863 119.234 31.6328 113.998C32.5047 111.603 32.4842 110.12 31.6454 109.499C30.9051 109.028 30.0404 108.852 29.6689 109.098C28.8516 109.64 25.5868 119.074 24.0112 125.571L22.8859 130.166L22.6255 126.062C21.94 114.861 24.3249 101.84 28.2745 95.0532C30.6593 90.9069 32.4675 89.6018 35.7304 89.6851ZM112.995 40.7328C117.936 41.7355 118.917 44.8283 116.99 53.0548C115.038 61.4048 110.662 70.6132 104.583 78.7045C98.602 86.9443 96.8699 87.5575 99.559 80.6433C103.044 72.0257 105.171 62.8109 103.937 62.2389C102.184 61.3688 100.201 63.2172 99.7732 65.96C99.2191 69.6418 93.5855 86.3123 92.8936 86.2362C91.9053 86.0356 93.2573 71.133 95.0603 62.8815C98.2652 48.3549 105.583 39.2288 112.995 40.7328ZM86.7764 116.699C96.3653 117.616 102.738 119.488 104.363 121.94C105.741 124.02 104.318 129.133 101.866 130.758C98.7453 132.826 90.0417 133.568 85.4226 132.245C81.125 130.922 69.6975 124.488 68.5652 122.779C68.1713 122.184 69.2589 122.212 71.0618 122.835C72.7411 123.433 77.2365 124.731 80.9174 125.607C86.7476 126.983 87.9095 126.961 88.7295 125.456C89.5495 123.95 89.0312 123.652 81.9666 121.704C74.3587 119.581 68.234 117.438 67.6925 116.621C67.1509 115.804 77.3602 115.882 86.7764 116.699ZM158.863 63.1592C170.564 60.0031 179.163 61.3621 180.434 66.5075C182.463 74.8934 170.449 83.7096 153.756 86.1101C147.721 87.0079 134.399 86.1053 134.65 84.87C134.7 84.6229 139.723 83.0055 145.859 81.2922C151.945 79.5047 157.116 77.7888 157.34 77.3197C158.583 74.6781 155.419 74.7434 144.534 77.6793C138.126 79.466 132.61 80.6618 132.413 80.3646C131.675 79.2501 137.771 73.9276 144.977 69.4734C150.4 66.2008 154.385 64.3085 158.863 63.1592ZM30.0834 155.228C37.0567 154.456 43.8492 156.478 46.1631 159.97C49.9048 165.616 45.787 170.697 36.3403 171.932C31.9137 172.512 8.34154 168.565 8.54298 167.256C8.86794 165.971 19.5266 164.468 24.2217 165.099C30.0286 165.956 32.4536 165.098 30.9767 162.869C30.3859 161.977 27.5697 161.277 23.4914 161.093C19.8579 160.934 16.7687 160.629 16.621 160.406C15.8324 159.539 25.6569 155.809 30.0834 155.228Z" fill="#C9E4DD" fill-opacity="0.2"/>
<path opacity="0.5" d="M54.4704 181.237C52.1753 184.876 49.7678 196.275 49.8393 203.13C49.8484 206.339 50.3067 211.056 50.8254 213.614C51.738 217.95 51.7006 218.367 50.0642 219.922C45.773 224.099 36.3617 237.002 31.3145 245.601C25.6659 255.305 19.0243 269.902 19.4544 271.735C19.7945 273.314 21.6994 272.993 22.3935 271.199C26.1392 261.109 34.9649 243.653 38.4222 239.401C39.2772 238.443 40.7638 238.556 48.6107 240.337C58.3061 242.54 64.1995 242.556 68.8656 240.484C71.9887 239.042 74.3362 236.075 74.5615 233.337C74.75 230.781 72.3855 226.857 69.7602 225.381C65.5597 223.066 57.4895 223.316 50.8633 225.981C46.7605 227.602 46.9063 227.348 54.6903 219.21C60.7828 212.898 70.0902 204.692 74.7774 201.586L77.8296 199.563L81.99 203.238C90.6727 210.897 99.1677 214.366 106.37 213.28C115.078 211.981 119.468 204.758 114.586 199.757C111.657 196.757 98.099 194.525 87.833 195.366L83.7158 195.663L86.5499 193.785C93.8533 188.946 109.612 182.19 121.263 178.94C127.869 177.073 128.195 177.092 135.173 178.508C146.591 180.825 155.771 179.291 164.382 173.585C168.252 171.021 169.415 169.936 170.637 167.636C172.223 164.703 172.324 160.714 170.844 158.479C168.027 154.228 159.686 153.951 148.468 157.854C142.642 159.833 133.575 166.39 130.28 171.005C128.077 174.19 127.859 174.335 125.046 174.943C123.504 175.338 119.293 176.559 115.718 177.673C110.073 179.453 109.402 179.505 110.603 178.239C119.423 169.179 127.066 153.134 126.07 145.95C125.163 139.728 118.803 137.824 112.391 141.995C107.722 145.01 104.914 150.479 102.818 160.573C101.899 165.104 101.174 171.467 101.201 174.822C101.246 178.086 101.31 181.26 101.272 181.912C101.25 182.946 100.487 183.452 95.3124 185.94C89.4472 188.806 70.9361 200.523 66.9732 204.012C65.8824 204.97 63.9558 206.56 62.8106 207.554L60.6837 209.434L63.074 204.164C65.9929 197.916 68.7739 189.093 69.2389 184.942C70.2641 175.007 59.9896 172.403 54.4704 181.237ZM62.5649 178.776C66.9349 178.86 67.118 184.7 63.0597 196.33C60.9938 202.327 57.0721 210.494 56.6026 209.786C56.2776 209.295 58.2608 200.451 59.5591 196.611C60.1987 194.854 60.1836 193.766 59.5683 193.31C59.0253 192.964 58.391 192.836 58.1185 193.016C57.5189 193.413 55.124 200.334 53.9682 205.1L53.1428 208.47L52.9518 205.46C52.4489 197.244 54.1984 187.692 57.0956 182.713C58.845 179.672 60.1714 178.715 62.5649 178.776ZM119.243 142.867C122.867 143.602 123.586 145.871 122.173 151.905C120.742 158.031 117.531 164.785 113.072 170.721C108.684 176.765 107.414 177.215 109.387 172.143C111.943 165.822 113.503 159.062 112.598 158.642C111.312 158.004 109.858 159.36 109.544 161.372C109.137 164.073 105.005 176.301 104.497 176.246C103.772 176.099 104.764 165.167 106.086 159.114C108.437 148.458 113.806 141.763 119.243 142.867ZM100.01 198.592C107.044 199.264 111.718 200.638 112.91 202.436C113.921 203.962 112.877 207.713 111.079 208.905C108.79 210.422 102.405 210.966 99.0168 209.995C95.8642 209.025 87.4815 204.305 86.6509 203.052C86.362 202.616 87.1598 202.636 88.4823 203.093C89.7142 203.532 93.0118 204.484 95.7119 205.126C99.9887 206.135 100.841 206.12 101.442 205.015C102.044 203.911 101.664 203.692 96.4816 202.263C90.9008 200.706 86.408 199.134 86.0108 198.535C85.6135 197.935 93.1026 197.992 100.01 198.592ZM152.889 159.317C161.473 157.002 167.78 157.999 168.713 161.774C170.201 167.925 161.388 174.392 149.142 176.153C144.716 176.812 134.944 176.15 135.128 175.243C135.164 175.062 138.849 173.876 143.35 172.619C147.814 171.308 151.608 170.049 151.772 169.705C152.684 167.767 150.363 167.815 142.378 169.969C137.678 171.279 133.631 172.157 133.487 171.939C132.945 171.121 137.417 167.217 142.703 163.949C146.681 161.549 149.604 160.161 152.889 159.317ZM58.4226 226.855C63.5378 226.289 68.5205 227.771 70.2178 230.333C72.9626 234.475 69.9419 238.202 63.0123 239.108C59.7652 239.534 42.4737 236.638 42.6215 235.678C42.8599 234.735 50.6786 233.633 54.1227 234.096C58.3824 234.724 60.1612 234.095 59.0778 232.46C58.6444 231.806 56.5786 231.292 53.5869 231.157C50.9216 231.041 48.6555 230.817 48.5472 230.653C47.9687 230.017 55.1754 227.281 58.4226 226.855Z" fill="#C9E4DD" fill-opacity="0.2"/>
</svg>