<svg xmlns="http://www.w3.org/2000/svg" width="40" height="40" viewBox="0 0 40 40" fill="none">
<path d="M8.44714 36.8019V39.9242C5.86462 39.9242 3.76357 37.8232 3.76357 35.2407V18.3111L2.04727 19.8016L0 17.4441L20 0.0756836L39.9999 17.4441L37.9526 19.8016L36.2363 18.3111V21.9383C35.3145 21.2766 34.2568 20.793 33.1139 20.5377V15.5996L19.9999 4.21105L6.88587 15.5996V35.2406C6.88595 36.1015 7.58638 36.8019 8.44714 36.8019ZM39.9832 39.9242H36.8608C36.8608 36.8683 34.3746 34.382 31.3186 34.382C28.2626 34.382 25.7764 36.8683 25.7764 39.9242H22.6235C22.6235 37.7342 20.8459 35.9515 18.6577 35.9432C16.4696 35.9514 14.6919 37.7341 14.6919 39.9242H11.5695C11.5695 37.4018 12.8913 35.1827 14.8783 33.922C14.3199 33.1509 13.9894 32.2043 13.9894 31.1816C13.9894 28.5991 16.0904 26.498 18.6729 26.498C21.2555 26.498 23.3565 28.5991 23.3565 31.1816C23.3565 32.2102 23.0224 33.1618 22.4581 33.9353C23.0378 34.3059 23.5603 34.7581 24.0094 35.276C24.767 34.0889 25.8055 33.0979 27.0306 32.3973C26.2476 31.4515 25.7764 30.2388 25.7764 28.9178C25.7764 25.9049 28.2276 23.4537 31.2405 23.4537C34.2535 23.4537 36.7047 25.9049 36.7047 28.9178C36.7047 30.211 36.2522 31.3999 35.4985 32.3368C38.17 33.8143 39.9832 36.6613 39.9832 39.9242ZM17.1118 31.1816C17.1118 32.0424 17.8121 32.7428 18.6729 32.7428C19.5338 32.7428 20.2341 32.0424 20.2341 31.1816C20.2341 30.3207 19.5338 29.6204 18.6729 29.6204C17.8121 29.6204 17.1118 30.3207 17.1118 31.1816ZM28.8988 28.9178C28.8988 30.2091 29.9493 31.2596 31.2405 31.2596C32.5318 31.2596 33.5823 30.2091 33.5823 28.9178C33.5823 27.6266 32.5318 26.5761 31.2405 26.5761C29.9493 26.5761 28.8988 27.6266 28.8988 28.9178Z" fill="white"/>
</svg>