<svg xmlns="http://www.w3.org/2000/svg" width="36" height="36" viewBox="0 0 36 36" fill="none">
<g clip-path="url(#clip0_340_614)">
<path d="M10.335 32.7201L10.3104 32.7072C9.9663 32.5272 9.5414 32.6602 9.36147 33.0044C9.18147 33.3485 9.31457 33.7733 9.65868 33.9533L9.68322 33.9662C9.78729 34.0206 9.89866 34.0464 10.0085 34.0464C10.2618 34.0464 10.5066 33.9091 10.6322 33.669C10.8122 33.3249 10.6791 32.9001 10.335 32.7201Z" fill="white"/>
<path d="M25.709 1.72961L25.6832 1.71738C25.3321 1.55158 24.913 1.70184 24.7472 2.05291C24.5814 2.40405 24.7316 2.82311 25.0828 2.98898L25.1015 2.99784C25.1995 3.04474 25.3028 3.06703 25.4047 3.06703C25.6669 3.06703 25.9185 2.91972 26.0393 2.66751C26.2071 2.31735 26.0592 1.89738 25.709 1.72961Z" fill="white"/>
<path d="M32.2678 7.02383C32.8358 6.10259 32.7215 4.87677 31.9237 4.07893C30.9916 3.14687 29.4749 3.14687 28.5428 4.07893C27.6107 5.01106 27.6107 6.5277 28.5428 7.45984C29.0088 7.92587 29.621 8.15888 30.2332 8.15888C30.5659 8.15888 30.8984 8.08948 31.2076 7.95188C33.3967 10.8277 34.5963 14.3712 34.5963 18.0001C34.5963 20.4686 34.0674 22.8436 33.0243 25.0591C32.8589 25.4104 33.0096 25.8293 33.361 25.9947C33.4578 26.0403 33.5597 26.0619 33.66 26.0619C33.9239 26.0619 34.1768 25.9126 34.2966 25.658C35.4286 23.2538 36.0025 20.6772 36.0025 18.0001C36.0025 14.0316 34.6797 10.1572 32.2678 7.02383ZM30.9293 6.46541C30.9262 6.46843 30.9229 6.47089 30.9199 6.47384C30.9196 6.47413 30.9192 6.47434 30.9189 6.47462C30.9109 6.48123 30.9037 6.48854 30.896 6.49543C30.5104 6.84784 29.9103 6.83855 29.5372 6.46541C29.1534 6.08164 29.1534 5.45713 29.5372 5.07329C29.7291 4.88141 29.9812 4.78543 30.2332 4.78543C30.4853 4.78543 30.7374 4.88141 30.9293 5.07329C31.3131 5.45705 31.3131 6.08157 30.9293 6.46541Z" fill="white"/>
<path d="M7.45973 28.5404C6.74037 27.8212 5.67316 27.6575 4.79489 28.0484C2.60585 25.1726 1.40625 21.6291 1.40625 18.0002C1.40625 15.708 1.86476 13.4887 2.76905 11.404C2.92359 11.0477 2.76005 10.6336 2.40377 10.4791C2.04764 10.3247 1.6335 10.4881 1.47888 10.8443C0.497602 13.1068 0 15.5144 0 18.0002C0 21.9687 1.32286 25.8431 3.73472 28.9765C3.16673 29.8977 3.28099 31.1235 4.07883 31.9214C4.54486 32.3874 5.15707 32.6204 5.76928 32.6204C6.38149 32.6204 6.9937 32.3874 7.45973 31.9214C8.3918 30.9892 8.3918 29.4726 7.45973 28.5404ZM6.4653 30.927C6.08154 31.3108 5.45695 31.3108 5.07319 30.927C4.68935 30.5432 4.68935 29.9187 5.07319 29.5349C5.07614 29.5319 5.07944 29.5295 5.08247 29.5265C5.08282 29.5262 5.08324 29.5259 5.08359 29.5257C5.09161 29.5191 5.09878 29.5117 5.10645 29.5049C5.29383 29.3337 5.53127 29.2469 5.76928 29.2469C6.02135 29.2469 6.27342 29.3429 6.4653 29.5348C6.84914 29.9186 6.84914 30.5432 6.4653 30.927Z" fill="white"/>
<path d="M31.9181 28.5404C30.986 27.6083 29.4693 27.6083 28.5372 28.5404C27.8179 29.2597 27.6543 30.3269 28.0452 31.2052C25.1694 33.3942 21.6258 34.5938 17.9969 34.5938C16.0892 34.5938 14.2191 34.273 12.4387 33.6402C12.0728 33.5101 11.6708 33.7013 11.5408 34.0672C11.4108 34.4331 11.6019 34.8352 11.9678 34.9652C13.8998 35.6519 15.9283 36.0001 17.9969 36.0001C21.9655 36.0001 25.8399 34.6772 28.9732 32.2654C29.3564 32.5016 29.7919 32.6203 30.2277 32.6203C30.8399 32.6203 31.4521 32.3873 31.9181 31.9213C32.8502 30.9891 32.8502 29.4725 31.9181 28.5404ZM30.9238 30.9269C30.54 31.3107 29.9154 31.3107 29.5316 30.9269C29.5286 30.9239 29.5262 30.9206 29.5232 30.9176C29.5229 30.9172 29.5227 30.9168 29.5224 30.9165C29.5158 30.9085 29.5085 30.9013 29.5016 30.8936C29.1492 30.5078 29.1585 29.9079 29.5316 29.5348C29.7235 29.3429 29.9756 29.2469 30.2277 29.2469C30.4797 29.2469 30.7318 29.3429 30.9237 29.5348C31.3076 29.9186 31.3076 30.5431 30.9238 30.9269Z" fill="white"/>
<path d="M23.2987 0.79432C21.587 0.267258 19.8027 0 17.9952 0C14.0267 0 10.1523 1.32286 7.01895 3.73472C6.09771 3.16673 4.87188 3.28106 4.07405 4.07883C3.14198 5.01096 3.14198 6.5276 4.07405 7.45973C4.54008 7.92577 5.15229 8.15878 5.7645 8.15878C6.37671 8.15878 6.98892 7.92577 7.45495 7.45973C8.17425 6.74044 8.33787 5.67316 7.947 4.79489C10.8228 2.60585 14.3663 1.40625 17.9952 1.40625C19.6622 1.40625 21.3073 1.65255 22.8848 2.13827C23.2558 2.25246 23.6495 2.04441 23.7637 1.67323C23.878 1.30212 23.6698 0.908578 23.2987 0.79432ZM6.46045 6.46538C6.07669 6.84921 5.4521 6.84921 5.06834 6.46538C4.68457 6.08154 4.68457 5.45702 5.06841 5.07319C5.26029 4.8813 5.51236 4.78533 5.76443 4.78533C6.0165 4.78533 6.26857 4.8813 6.46045 5.07319C6.46348 5.07621 6.46594 5.07952 6.46889 5.08254C6.46917 5.08289 6.46938 5.08324 6.46966 5.08359C6.4722 5.08669 6.47515 5.08929 6.47775 5.09238C6.8433 5.47748 6.8381 6.08773 6.46045 6.46538Z" fill="white"/>
<path d="M31.3535 15.6945C31.3533 15.3063 31.0385 14.9917 30.6503 14.9917H29.212C28.9499 14.009 28.5616 13.0712 28.0529 12.1921L29.0699 11.175C29.3445 10.9005 29.3445 10.4552 29.0699 10.1806L25.8169 6.92766C25.5424 6.65316 25.0971 6.65316 24.8225 6.92766L23.8054 7.94473C22.9263 7.43588 21.9885 7.04769 21.0059 6.78563V5.34739C21.0059 4.9592 20.6912 4.64441 20.303 4.64427L15.7025 4.64258C15.7025 4.64258 15.7024 4.64258 15.7023 4.64258C15.5159 4.64258 15.3371 4.71662 15.2051 4.84845C15.0732 4.98029 14.9991 5.15916 14.9991 5.3457V6.78563C14.0164 7.04762 13.0787 7.43588 12.1994 7.94473L11.1786 6.92394C10.9041 6.64937 10.4591 6.6493 10.1845 6.92366L6.92965 10.1749C6.79767 10.3067 6.72349 10.4856 6.72342 10.6722C6.72342 10.8587 6.79746 11.0376 6.92937 11.1695L7.95192 12.1921C7.44307 13.0713 7.0548 14.0091 6.79275 14.9918H5.34544C4.95724 14.9918 4.64245 15.3065 4.64231 15.6946L4.64063 20.2951C4.64055 20.4817 4.71459 20.6606 4.8465 20.7925C4.97841 20.9244 5.15721 20.9985 5.34375 20.9985H6.79289C7.05495 21.9813 7.44321 22.919 7.95206 23.7983L6.92571 24.8245C6.65114 25.0991 6.65114 25.5443 6.92571 25.8189L10.1787 29.072C10.4533 29.3465 10.8985 29.3465 11.1731 29.072L12.1994 28.0456C13.0786 28.5545 14.0164 28.9427 14.9992 29.2047V30.6538C14.9992 30.8404 15.0733 31.0193 15.2052 31.1511C15.3371 31.2829 15.5159 31.357 15.7023 31.357C15.7024 31.357 15.7025 31.357 15.7026 31.357L20.3031 31.3553C20.6913 31.3551 21.0059 31.0404 21.0059 30.6522V29.2047C21.9886 28.9426 22.9264 28.5544 23.8056 28.0455L24.8282 29.0681C25.1028 29.3426 25.548 29.3426 25.8226 29.0681L29.0756 25.8151C29.3502 25.5405 29.3502 25.0953 29.0756 24.8206L28.053 23.7981C28.5618 22.9188 28.9501 21.9811 29.2121 20.9984H30.652C30.8386 20.9984 31.0174 20.9243 31.1493 20.7924C31.2811 20.6605 31.3552 20.4815 31.3552 20.295L31.3535 15.6945ZM28.6583 19.5923C28.3269 19.5923 28.0405 19.8237 27.9709 20.1477C27.7118 21.3531 27.2418 22.4885 26.5737 23.5222C26.3938 23.8005 26.4327 24.1667 26.6671 24.401L27.5841 25.318L25.3254 27.5767L24.4085 26.6597C24.1741 26.4253 23.808 26.3864 23.5296 26.5664C22.4959 27.2344 21.3606 27.7045 20.1551 27.9635C19.8311 28.0332 19.5997 28.3195 19.5997 28.651V29.9494L16.4055 29.9506V28.6511C16.4055 28.3197 16.1741 28.0332 15.8501 27.9636C14.6445 27.7046 13.5092 27.2345 12.4755 26.5664C12.3585 26.4908 12.2259 26.4538 12.0941 26.4538C11.9125 26.4537 11.7324 26.5238 11.5966 26.6597L10.6759 27.5803L8.41725 25.3217L9.33792 24.401C9.57227 24.1667 9.61116 23.8005 9.4313 23.5221C8.76319 22.4885 8.29308 21.3531 8.03412 20.1476C7.96451 19.8236 7.67812 19.5922 7.34667 19.5922H6.04716L6.04835 16.398H7.34674C7.67812 16.398 7.96458 16.1666 8.03419 15.8426C8.29322 14.6371 8.76333 13.5017 9.43137 12.4681C9.6113 12.1898 9.57234 11.8235 9.33806 11.5892L8.42133 10.6725L10.6812 8.41512L11.5967 9.33059C11.8311 9.56495 12.1972 9.60383 12.4755 9.42397C13.5093 8.75593 14.6446 8.28582 15.8501 8.02679C16.1741 7.95718 16.4055 7.6708 16.4055 7.33934V6.04911L19.5997 6.0503V7.33948C19.5997 7.67087 19.8311 7.95732 20.1551 8.02693C21.3606 8.28596 22.4959 8.75607 23.5294 9.42411C23.8077 9.60404 24.174 9.56509 24.4083 9.3308L25.3197 8.41934L27.5784 10.678L26.6669 11.5895C26.4326 11.8238 26.3937 12.19 26.5736 12.4683C27.2417 13.5019 27.7118 14.6371 27.9708 15.8427C28.0404 16.1667 28.3268 16.3981 28.6582 16.3981H29.9474L29.9486 19.5923H28.6583Z" fill="white"/>
<path d="M23.7547 16.1482C23.6361 15.7784 23.2401 15.5748 22.8704 15.6934C22.5007 15.8121 22.2971 16.208 22.4157 16.5778C22.95 18.2433 22.5143 20.0456 21.2786 21.2813C19.4692 23.0907 16.5251 23.0907 14.7158 21.2813C12.9064 19.4719 12.9064 16.5278 14.7158 14.7185C15.9222 13.5121 17.6887 13.0653 19.3258 13.5524C19.6979 13.6632 20.0895 13.4512 20.2002 13.0791C20.311 12.7069 20.0991 12.3154 19.7269 12.2046C17.5945 11.5699 15.2933 12.1522 13.7214 13.7241C11.3637 16.0818 11.3637 19.918 13.7214 22.2757C14.9002 23.4545 16.4486 24.0438 17.9971 24.0438C19.5456 24.0438 21.0941 23.4544 22.273 22.2756C23.883 20.6656 24.4508 18.3176 23.7547 16.1482Z" fill="white"/>
<path d="M22.3435 13.79C22.3221 13.768 22.3006 13.7462 22.2789 13.7244C22.0046 13.4497 21.5594 13.4492 21.2845 13.7236C21.0096 13.998 21.0093 14.4431 21.2837 14.718C21.3007 14.735 21.3175 14.7521 21.3342 14.7693C21.4721 14.9114 21.6554 14.9828 21.8389 14.9828C22.0153 14.9828 22.1919 14.9169 22.3284 14.7843C22.6072 14.5139 22.6139 14.0688 22.3435 13.79Z" fill="white"/>
</g>
<defs>
<clipPath id="clip0_340_614">
<rect width="36" height="36" fill="white"/>
</clipPath>
</defs>
</svg>