<svg xmlns="http://www.w3.org/2000/svg" width="39" height="36" viewBox="0 0 39 36" fill="none">
<path d="M15.8759 5.93622C14.7897 5.68347 13.7035 6.12067 13.1775 7.00873C12.6515 6.12067 11.5722 5.68347 10.4792 5.93622C9.59115 6.14116 8.64844 6.8721 8.64844 8.32032C8.66893 10.7317 9.93954 12.3986 13.0204 14.0585C13.1229 14.1132 13.239 14.1132 13.3415 14.0585C16.4224 12.3917 17.6861 10.7317 17.7135 8.31349C17.7135 6.87893 16.7639 6.14116 15.8759 5.93622ZM13.1844 13.3823C10.4655 11.8794 9.34522 10.4038 9.32473 8.31349C9.32473 7.42543 9.81658 6.77646 10.6363 6.58519C11.3946 6.42124 12.269 6.674 12.6584 7.44592C12.8565 7.84897 13.4986 7.84897 13.7035 7.44592C14.0929 6.66033 15.0151 6.41441 15.7256 6.58519C16.5453 6.77646 17.0372 7.4186 17.0372 8.30666C17.0235 10.4038 15.8964 11.8794 13.1844 13.3823Z" fill="white"/>
<path d="M31.9137 22.7547C31.9137 22.5703 31.7634 22.42 31.579 22.42H20.3826C19.9454 22.4131 19.9454 23.0963 20.3826 23.0894H31.579C31.7634 23.0894 31.9137 22.9391 31.9137 22.7547Z" fill="white"/>
<path d="M20.3826 21.2862H31.579C32.0162 21.293 32.0162 20.6099 31.579 20.6168H20.3826C19.9454 20.6099 19.9454 21.293 20.3826 21.2862Z" fill="white"/>
<path d="M20.3826 19.4825H31.579C32.0162 19.4893 32.0162 18.8062 31.579 18.813H20.3826C19.9454 18.8062 19.9454 19.4893 20.3826 19.4825Z" fill="white"/>
<path d="M20.3826 17.6794H31.579C32.0162 17.6863 32.0162 17.0031 31.579 17.01H20.3826C19.9454 16.9963 19.9454 17.6863 20.3826 17.6794Z" fill="white"/>
<path d="M20.3826 15.8687H31.579C32.0162 15.8756 32.0162 15.1924 31.579 15.1993H20.3826C19.9454 15.1924 19.9454 15.8756 20.3826 15.8687Z" fill="white"/>
<path d="M35.7906 28.8688H34.8V27.9807C34.8 27.7963 34.6498 27.646 34.4653 27.646H32.5662C32.3818 27.646 32.2315 27.7963 32.2315 27.9807V28.8688H31.241C31.0565 28.8688 30.9062 29.0191 30.9062 29.2035V30.9455C30.9062 31.1299 31.0565 31.2802 31.241 31.2802H32.2315V32.1683C32.2315 32.3527 32.3818 32.503 32.5662 32.503H34.4653C34.6498 32.503 34.8 32.3527 34.8 32.1683V31.2802H35.7906C35.975 31.2802 36.1253 31.1299 36.1253 30.9455V29.2035C36.1253 29.0191 35.975 28.8688 35.7906 28.8688ZM35.4558 30.6107H34.4653C34.2809 30.6107 34.1306 30.761 34.1306 30.9455V31.8335H32.901V30.9455C32.901 30.761 32.7507 30.6107 32.5662 30.6107H31.5757V29.5382H32.5662C32.7507 29.5382 32.901 29.388 32.901 29.2035V28.3155H34.1306V29.2035C34.1306 29.388 34.2809 29.5382 34.4653 29.5382H35.4558V30.6107Z" fill="white"/>
<path d="M38.2207 27.2293C38.2139 27.0448 38.0363 26.9014 37.8586 26.915C37.3258 26.9697 36.834 26.5461 36.9159 26.0543C36.9638 25.8698 36.8271 25.6717 36.6359 25.6512C35.6385 25.5078 34.7983 25.3575 34.0058 24.8793V12.0366C34.0058 11.8522 33.8555 11.7019 33.6711 11.7019H25.9245V1.49604C25.9245 1.31159 25.7742 1.16131 25.5898 1.16131H20.3161V1.00419C20.3161 0.450861 19.8652 0 19.3119 0H6.61946C6.06613 0 5.61527 0.450861 5.61527 1.00419V1.16131H0.33473C0.150287 1.16131 0 1.31159 0 1.49604V35.1876C0 35.3721 0.150287 35.5224 0.33473 35.5224H33.6643C33.7599 35.5224 33.8419 35.4814 33.9034 35.4199C36.9364 34.5182 38.5076 31.5534 38.2207 27.2293ZM25.255 1.83077V11.7019H24.6334V2.52072C24.6334 2.33628 24.4831 2.18599 24.2987 2.18599H20.3229V1.83077H25.255ZM18.3008 11.7019C18.1164 11.7019 17.9661 11.8522 17.9661 12.0366V16.9278H3.32681C2.88961 16.9209 2.88961 17.6041 3.32681 17.5972H17.9661V18.7312H3.32681C2.88961 18.7244 2.88961 19.4075 3.32681 19.4007H17.9661V20.5347H3.32681C2.88961 20.5278 2.88961 21.2109 3.32681 21.2041H17.9661V22.3381H3.32681C2.88961 22.3313 2.88961 23.0144 3.32681 23.0076H17.9661V24.1415H3.32681C2.88961 24.1347 2.88961 24.8178 3.32681 24.811H17.9661V33.3364H1.97422V2.85545H5.60843V3.16286C5.60843 3.71619 6.0593 4.16705 6.61263 4.16705H19.305C19.8584 4.16705 20.3092 3.71619 20.3092 3.16286V2.85545H23.9503V11.7019H18.3008ZM6.61946 0.66946H19.3119C19.4963 0.66946 19.6466 0.819747 19.6466 1.00419V3.16286C19.6466 3.3473 19.4963 3.49759 19.3119 3.49759H6.61946C6.43501 3.49759 6.28473 3.3473 6.28473 3.16286V1.00419C6.27789 0.819747 6.42818 0.66946 6.61946 0.66946ZM0.66946 1.83077H5.60843V2.18599H1.63949C1.45505 2.18599 1.30476 2.33628 1.30476 2.52072V33.6711C1.30476 33.8555 1.45505 34.0058 1.63949 34.0058H17.9661V34.8529H0.66946V1.83077ZM18.6356 34.8529V12.3713H33.3295L33.3227 24.688C32.4483 25.3165 31.5261 25.4873 30.4946 25.6376C30.2418 25.6717 30.1735 25.9313 30.2213 26.1499C30.2213 26.6144 29.7158 26.9902 29.2035 26.9082C29.0122 26.874 28.8209 27.0243 28.8141 27.2156C28.5682 30.8703 29.6407 33.555 31.813 34.8529H18.6356ZM33.514 34.8392C30.7473 34.122 29.2786 31.4919 29.4631 27.5845C30.2213 27.5298 30.8361 26.9628 30.8908 26.2524C31.7925 26.1089 32.6737 25.9108 33.5208 25.3643C34.3747 25.9245 35.2696 26.1226 36.2396 26.2661C36.3011 26.9423 36.8613 27.482 37.5717 27.5708C37.7493 31.4919 36.2806 34.122 33.514 34.8392Z" fill="white"/>
</svg>