<svg xmlns="http://www.w3.org/2000/svg" width="35" height="35" viewBox="0 0 35 35" fill="none">
<path d="M31.4146 21.8112C33.3916 21.8112 35 20.1998 35 18.219V3.5922C35 1.61145 33.3916 0 31.4146 0H3.58542C1.60841 0 0 1.61138 0 3.5922V18.219C0 20.0847 1.42718 21.6223 3.24511 21.7946C3.29553 22 3.36118 22.2053 3.43996 22.4142L3.46126 33.6933C3.4614 33.7607 3.46825 33.8265 3.47821 33.8912H0.55336C0.247767 33.8912 0 34.1394 0 34.4456C0 34.7518 0.247767 35 0.55336 35H34.4466C34.7522 35 35 34.7518 35 34.4456C35 34.1877 34.8239 33.9715 34.5858 33.9095V33.5567C34.5858 33.5401 34.585 33.5235 34.5836 33.5069C34.4516 32.0395 33.7805 30.6804 32.6937 29.6799C32.1095 29.1421 31.4314 28.7349 30.7004 28.4708C31.3724 27.8994 31.8 27.0478 31.8 26.0976C31.8 24.3813 30.4064 22.9851 28.6933 22.9851C26.9802 22.9851 25.5865 24.3813 25.5865 26.0976C25.5865 27.0478 26.0141 27.8994 26.6861 28.4708C25.9551 28.7349 25.277 29.1421 24.6928 29.6799C24.5129 29.8455 24.3456 30.0218 24.1891 30.2058C23.5158 29.4109 22.6546 28.8159 21.6922 28.4688C22.3629 27.8974 22.7896 27.0467 22.7896 26.0976C22.7896 24.3813 21.3959 22.9851 19.6829 22.9851C17.9698 22.9851 16.5762 24.3813 16.5762 26.0976C16.5762 27.0478 17.0038 27.8994 17.6758 28.4708C16.9447 28.7349 16.2666 29.1421 15.6824 29.6799C14.5957 30.6804 13.9245 32.0395 13.7926 33.5069C13.7911 33.5234 13.7903 33.5401 13.7903 33.5567V33.8912H12.7894C12.7937 33.8721 12.7989 33.8534 12.8026 33.8339C12.9374 33.1186 12.5838 32.4433 11.9427 32.1918L10.5528 31.6469C10.3771 31.578 10.2763 31.43 10.2763 31.2409V21.8112H31.4146ZM1.10672 18.219V3.5922C1.10672 2.22282 2.21863 1.10881 3.58542 1.10881H31.4146C32.7814 1.10881 33.8933 2.22282 33.8933 3.5922V18.219C33.8933 19.5884 32.7814 20.7024 31.4146 20.7024H10.2762V12.8085H11.1015C11.6411 12.8085 12.11 12.6827 12.5772 12.4123L17.2323 9.71964C18.3038 9.09988 18.4085 8.08982 18.0523 7.41373C17.6991 6.74317 16.8213 6.27213 15.8856 6.72238L10.9381 9.16856C10.3001 9.16551 9.75698 8.92538 9.32342 8.45462C9.09661 8.2084 8.83798 7.99814 8.55778 7.82607C9.51938 7.17748 10.1584 6.04531 10.1584 4.75868C10.1584 2.74944 8.60156 1.11477 6.68797 1.11477C4.77439 1.11477 3.21758 2.74944 3.21758 4.75868C3.21758 6.04393 3.85512 7.17498 4.81492 7.82392C3.78685 8.45684 3.09964 9.59386 3.09964 10.8889V20.5376C3.09964 20.5773 3.10137 20.6156 3.10213 20.6547C1.96602 20.4288 1.10672 19.4227 1.10672 18.219ZM6.68791 8.40265C7.37532 8.40265 8.03949 8.69572 8.51005 9.2066C9.1552 9.9071 9.99893 10.2774 10.9502 10.2774H11.0671C11.152 10.2774 11.2358 10.2578 11.3119 10.2201L16.37 7.71927C16.7425 7.53985 16.9875 7.7682 17.0735 7.93133C17.2251 8.21921 17.0777 8.52877 16.6789 8.75948L12.0238 11.4522C11.7278 11.6234 11.4433 11.6997 11.1014 11.6997H9.72281C9.41721 11.6997 9.16945 11.9479 9.16945 12.2541V18.9039H4.20636V10.8889C4.20636 9.51797 5.31959 8.40265 6.68791 8.40265ZM4.32423 4.75868C4.32423 3.36081 5.38454 2.22358 6.68791 2.22358C7.99127 2.22358 9.05158 3.36081 9.05158 4.75868C9.05158 6.15654 7.99127 7.29383 6.68791 7.29383C5.38454 7.29383 4.32423 6.15661 4.32423 4.75868ZM4.56791 33.6913L4.55194 25.217L4.93576 26.182L5.76047 33.692C5.76794 33.7603 5.7815 33.8264 5.79783 33.8913H4.76802C4.65791 33.8913 4.56812 33.8017 4.56791 33.6913ZM28.6932 24.094C29.7959 24.094 30.6931 24.9929 30.6931 26.0978C30.6931 27.2026 29.7959 28.1016 28.6932 28.1016C27.5904 28.1016 26.6931 27.2026 26.6931 26.0978C26.6931 24.9929 27.5904 24.094 28.6932 24.094ZM28.6932 29.2277C31.1903 29.2277 33.2434 31.098 33.479 33.5824V33.8913H23.9074V33.5824C24.1429 31.098 26.1962 29.2277 28.6932 29.2277ZM19.6828 24.094C20.7856 24.094 21.6828 24.9929 21.6828 26.0978C21.6828 27.2026 20.7856 28.1016 19.6828 28.1016C18.58 28.1016 17.6828 27.2026 17.6828 26.0978C17.6828 24.9929 18.58 24.094 19.6828 24.094ZM14.897 33.5824C15.1326 31.098 17.1858 29.2277 19.6828 29.2277C21.2081 29.2277 22.622 29.9422 23.5291 31.1546C23.1279 31.8732 22.878 32.6725 22.8029 33.5071C22.8015 33.5235 22.8007 33.5402 22.8007 33.5568V33.8913H14.897V33.5824ZM11.5392 33.2244C11.7244 33.2971 11.7368 33.5125 11.715 33.6283C11.6924 33.7483 11.6257 33.8913 11.4361 33.8913H7.21761C7.0312 33.8913 6.88103 33.7565 6.86062 33.5708L6.02768 25.9861C6.02221 25.9365 6.01011 25.8879 5.99164 25.8416L4.50718 22.1087C4.29628 21.5785 4.20629 21.1085 4.20629 20.5377V20.0127H9.16952V31.241C9.16952 31.8816 9.55424 32.4463 10.1494 32.6796L11.5392 33.2244ZM19.4607 10.6062L20.1372 10.7158C20.2258 10.9867 20.335 11.2505 20.464 11.5051L20.0627 12.0622C19.8025 12.4235 19.8419 12.9145 20.1563 13.2296L21.2061 14.2814C21.5206 14.5964 22.0107 14.6357 22.3714 14.3751L22.9274 13.9731C23.1815 14.1023 23.4447 14.2116 23.7153 14.3004L23.8246 14.9784C23.8956 15.4183 24.2699 15.7376 24.7147 15.7376H26.1993C26.6441 15.7376 27.0184 15.4183 27.0894 14.9783L27.1987 14.3005C27.4691 14.2119 27.7324 14.1024 27.9866 13.9731L28.5426 14.3751C28.9032 14.6358 29.3932 14.5963 29.7079 14.2813L30.7575 13.2297C31.0721 12.9146 31.1115 12.4236 30.8512 12.0621L30.4499 11.505C30.5788 11.2506 30.6879 10.9867 30.7766 10.7158L31.4534 10.6062C31.8924 10.5349 32.211 10.1599 32.211 9.71437V8.22704C32.211 7.78157 31.8924 7.40652 31.4532 7.33521L30.7766 7.22564C30.6882 6.95482 30.5789 6.69099 30.4499 6.43631L30.8513 5.87913C31.1115 5.51766 31.072 5.02673 30.7576 4.71183L29.7079 3.66019C29.3932 3.3448 28.9032 3.30544 28.5426 3.56635L27.9865 3.96837C27.7325 3.83919 27.4692 3.72984 27.1987 3.64106L27.0894 2.96309C27.0184 2.52324 26.6441 2.20397 26.1993 2.20397H24.7147C24.2699 2.20397 23.8956 2.52324 23.8246 2.96316L23.7153 3.64106C23.4448 3.72977 23.1816 3.83912 22.9275 3.96844L22.3715 3.56642C22.0107 3.30551 21.5206 3.34501 21.2061 3.66012L20.1563 4.7119C19.842 5.02694 19.8026 5.51786 20.0627 5.87941L20.4641 6.43652C20.3351 6.69106 20.226 6.95482 20.1375 7.22564L19.4604 7.33535C19.0215 7.40659 18.7029 7.78164 18.7029 8.22711V9.71444C18.7029 10.1599 19.0215 10.5349 19.4607 10.6062ZM19.8097 8.40189L20.6589 8.26432C20.8764 8.22912 21.0523 8.06806 21.1068 7.85427C21.212 7.44179 21.3757 7.04636 21.5933 6.679C21.7057 6.48918 21.695 6.25058 21.5661 6.07158L21.0623 5.37219L21.8652 4.56782L22.5632 5.07254C22.7419 5.20171 22.98 5.21253 23.1696 5.0997C23.5362 4.88168 23.9309 4.71765 24.3426 4.61231C24.556 4.5577 24.7168 4.38147 24.7519 4.16359L24.8891 3.31278H26.0246L26.1619 4.16359C26.197 4.38147 26.3578 4.5577 26.5712 4.61231C26.9831 4.71772 27.3777 4.88175 27.7442 5.09964C27.9338 5.21246 28.172 5.20171 28.3506 5.07247L29.0485 4.56782L29.8515 5.37226L29.3478 6.07144C29.2189 6.25037 29.2082 6.48891 29.3206 6.67879C29.5383 7.0465 29.702 7.44193 29.8071 7.8542C29.8615 8.06806 30.0375 8.22919 30.2549 8.26439L31.1041 8.40189V9.53946L30.2549 9.67695C30.0374 9.71215 29.8615 9.87321 29.807 10.087C29.7018 10.4998 29.5381 10.8953 29.3206 11.2623C29.2081 11.4522 29.2187 11.6908 29.3477 11.8698L29.8514 12.5691L29.0486 13.3735L28.3506 12.8689C28.172 12.7397 27.9339 12.729 27.7443 12.8416C27.3775 13.0598 26.9828 13.2238 26.5712 13.3291C26.3578 13.3836 26.1971 13.5599 26.1619 13.7778L26.0246 14.6286H24.8892L24.7519 13.7778C24.7168 13.5599 24.556 13.3836 24.3426 13.329C23.9307 13.2236 23.536 13.0596 23.1694 12.8416C22.98 12.7291 22.7418 12.7397 22.5632 12.8689L21.8652 13.3735L21.0623 12.5691L21.566 11.8698C21.695 11.6908 21.7056 11.4522 21.5931 11.2623C21.3755 10.895 21.2118 10.4996 21.1067 10.0871C21.0522 9.87321 20.8763 9.71215 20.6588 9.67695L19.8097 9.53946V8.40189ZM25.457 12.4983C27.3984 12.4983 28.978 10.9158 28.978 8.97064C28.978 7.0255 27.3984 5.44295 25.457 5.44295C23.5155 5.44295 21.9359 7.0255 21.9359 8.97064C21.9359 10.9158 23.5155 12.4983 25.457 12.4983ZM25.457 6.55169C26.7882 6.55169 27.8713 7.6368 27.8713 8.97057C27.8713 10.3043 26.7882 11.3894 25.457 11.3894C24.1257 11.3894 23.0427 10.3043 23.0427 8.97057C23.0427 7.6368 24.1257 6.55169 25.457 6.55169ZM13.0599 15.8599C13.0599 15.5537 13.3077 15.3055 13.6133 15.3055H19.7574C20.063 15.3055 20.3108 15.5537 20.3108 15.8599C20.3108 16.1661 20.063 16.4143 19.7574 16.4143H13.6133C13.3077 16.4143 13.0599 16.1661 13.0599 15.8599ZM18.0833 12.8154C18.3889 12.8154 18.6367 13.0637 18.6367 13.3698C18.6367 13.676 18.3889 13.9243 18.0833 13.9243H15.063C14.7574 13.9243 14.5096 13.676 14.5096 13.3698C14.5096 13.0637 14.7574 12.8154 15.063 12.8154H18.0833ZM30.9768 18.3498C30.9768 18.656 30.729 18.9042 30.4234 18.9042H13.6133C13.3077 18.9042 13.0599 18.656 13.0599 18.3498C13.0599 18.0436 13.3077 17.7954 13.6133 17.7954H30.4234C30.729 17.7954 30.9768 18.0436 30.9768 18.3498Z" fill="white"/>
</svg>